<svg xmlns="http://www.w3.org/2000/svg" viewBox="0 0 24 24" fill="none">
	<path d="M16.19 2H7.81C4.17 2 2 4.17 2 7.81V16.18C2 19.83 4.17 22 7.81 22H16.18C19.82 22 21.99 19.83 21.99 16.19V7.81C22 4.17 19.83 2 16.19 2ZM15.36 14.3C15.65 14.59 15.65 15.07 15.36 15.36C15.21 15.51 15.02 15.58 14.83 15.58C14.64 15.58 14.45 15.51 14.3 15.36L12 13.06L9.7 15.36C9.55 15.51 9.36 15.58 9.17 15.58C8.98 15.58 8.79 15.51 8.64 15.36C8.35 15.07 8.35 14.59 8.64 14.3L10.94 12L8.64 9.7C8.35 9.41 8.35 8.93 8.64 8.64C8.93 8.35 9.41 8.35 9.7 8.64L12 10.94L14.3 8.64C14.59 8.35 15.07 8.35 15.36 8.64C15.65 8.93 15.65 9.41 15.36 9.7L13.06 12L15.36 14.3Z" fill="#636B78" />
	<path d="M13.0594 12.0001L15.3594 9.70011C15.6494 9.41011 15.6494 8.93011 15.3594 8.64011C15.0694 8.35011 14.5894 8.35011 14.2994 8.64011L11.9994 10.9401L9.69937 8.64011C9.40937 8.35011 8.92937 8.35011 8.63938 8.64011C8.34938 8.93011 8.34938 9.41011 8.63938 9.70011L10.9394 12.0001L8.63938 14.3001C8.34938 14.5901 8.34938 15.0701 8.63938 15.3601C8.78938 15.5101 8.97937 15.5801 9.16937 15.5801C9.35937 15.5801 9.54937 15.5101 9.69937 15.3601L11.9994 13.0601L14.2994 15.3601C14.4494 15.5101 14.6394 15.5801 14.8294 15.5801C15.0194 15.5801 15.2094 15.5101 15.3594 15.3601C15.6494 15.0701 15.6494 14.5901 15.3594 14.3001L13.0594 12.0001Z" fill="#fff" stroke="#fff" />
</svg>
