<svg width="30" height="20" viewBox="0 0 30 20" fill="none" xmlns="http://www.w3.org/2000/svg">
<rect width="29.9928" height="19.7143" rx="1" fill="white"/>
<mask id="mask0_1_729" style="mask-type:luminance" maskUnits="userSpaceOnUse" x="0" y="0" width="30" height="20">
<rect width="29.9928" height="19.7143" rx="1" fill="white"/>
</mask>
<g mask="url(#mask0_1_729)">
<rect width="29.9928" height="19.7143" rx="1" fill="#F1361D"/>
<path fill-rule="evenodd" clip-rule="evenodd" d="M10.79 3.0568L11.8274 3.21955L12.6054 3.87159L12.7823 2.91698L13.4909 2.20102L12.4535 2.03828L11.6755 1.38623L11.4986 2.34084L10.79 3.0568ZM13.5688 6.39578L14.4677 5.89232L15.5198 5.91472L14.9727 5.08749L14.997 4.11937L14.0981 4.62282L13.046 4.60043L13.5931 5.42765L13.5688 6.39578ZM12.3493 11.8L11.47 12.3321L11.4576 11.3638L10.8794 10.5546L11.9317 10.5432L12.811 10.0112L12.8234 10.9795L13.4015 11.7886L12.3493 11.8ZM13.1131 9.2969L14.159 9.19022L15.1022 9.61966L14.9863 8.65717L15.4529 7.78921L14.407 7.8959L13.4638 7.46646L13.5797 8.42894L13.1131 9.2969Z" fill="#FFDC42"/>
<path fill-rule="evenodd" clip-rule="evenodd" d="M7.14139 8.10899L4.62291 9.76111L5.55214 7.04645L3.06641 5.35287L6.15918 5.32724L7.14139 2.62842L8.12359 5.32724L11.2164 5.35287L8.73063 7.04645L9.65986 9.76111L7.14139 8.10899Z" fill="#FFDC42"/>
</g>
</svg>
