<svg width="21" height="15" viewBox="0 0 21 15" fill="none" xmlns="http://www.w3.org/2000/svg">
<path d="M11.3978 7.22209C11.2239 7.19564 11.0493 7.1775 10.8751 7.1775C9.73117 7.1775 8.58805 7.67134 7.97472 8.68418C7.06049 10.1945 7.63329 12.1978 9.21669 13.0694C9.73818 13.3567 10.3106 13.421 10.8722 13.421C12.0161 13.421 13.1563 12.855 13.7692 11.8421C14.4612 10.699 14.2869 9.38721 13.4899 8.40355L14.597 4.3421L11.3978 7.22209ZM12.3054 11.1245C12.0107 11.6116 11.4632 11.8421 10.8722 11.8421C10.5804 11.8421 10.3002 11.8429 10.0449 11.702C9.25436 11.267 8.98286 10.2995 9.43894 9.54593C9.73368 9.05884 10.2841 8.75605 10.8755 8.75605C11.1668 8.75605 11.4441 8.8275 11.6995 8.96802C12.4899 9.40343 12.7614 10.3705 12.3054 11.1245ZM10.8722 0C5.38642 0 0.939453 4.51302 0.939453 9.86843C0.939453 11.8263 1.53583 13.4759 2.55807 15H6.73354V13.421H3.42263C2.82378 12.2846 2.59491 11.1596 2.59491 9.86843C2.59491 5.41263 6.30809 1.57895 10.8722 1.57895C15.4363 1.57895 19.1495 5.41263 19.1495 9.86843C19.1495 11.1596 18.9206 12.2846 18.3217 13.421H15.0108V15H19.1495C20.1717 13.4759 20.8049 11.8263 20.8049 9.86843C20.8049 4.51302 16.358 0 10.8722 0Z" fill="#363F49"/>
</svg>
