<svg width="26" height="25" viewBox="0 0 26 25" fill="none" xmlns="http://www.w3.org/2000/svg">
<path d="M12.5606 2.32797e-06C5.67727 -0.00416434 0.0585269 5.58542 0.0481103 12.4437C0.0376936 19.3708 5.61894 24.9896 12.5231 25C19.4314 25.0104 25.0418 19.4104 25.0481 12.4937C25.0564 5.61666 19.4439 0.00208566 12.5606 2.32797e-06ZM17.6793 8.91458C17.4585 10.7208 17.1627 12.5146 16.8564 14.3083C16.7023 15.2167 16.5356 16.125 16.3752 17.0333C16.3398 17.2312 16.2898 17.425 16.2168 17.6125C16.1627 17.75 16.0981 17.8792 16.0064 17.9958C15.8689 18.1729 15.6918 18.2667 15.4627 18.2667C15.2418 18.2667 15.0356 18.2146 14.8377 18.125C14.6398 18.0354 14.4606 17.9146 14.2814 17.7937C13.2564 17.0979 12.2314 16.4042 11.2064 15.7104C11.0898 15.6312 10.9689 15.5562 10.8564 15.4729C10.7669 15.4062 10.6835 15.3292 10.5981 15.2542C10.5731 15.2312 10.5523 15.2062 10.5314 15.1812C10.3377 14.9458 10.3189 14.7208 10.4898 14.4687C10.5627 14.3583 10.6502 14.2542 10.746 14.1625C11.1148 13.8021 11.4877 13.4437 11.8606 13.0875C12.3481 12.6271 12.8398 12.1729 13.3252 11.7083C13.6543 11.3937 13.9731 11.0708 14.296 10.75C14.371 10.6729 14.4377 10.5875 14.5085 10.5062C14.5627 10.4437 14.5627 10.3708 14.5377 10.2958C14.5168 10.2312 14.471 10.1937 14.4023 10.1875C14.3231 10.1792 14.2481 10.1896 14.1793 10.2312C14.0481 10.3125 13.9148 10.3896 13.7856 10.475C12.6523 11.2271 11.521 11.9771 10.3898 12.7312C9.97102 13.0104 9.55435 13.2937 9.1356 13.575C8.95019 13.7 8.75435 13.8062 8.54602 13.8917C8.20227 14.0333 7.8481 14.0458 7.48769 13.975C7.01894 13.8812 6.55852 13.75 6.10435 13.6062C5.83977 13.5229 5.57519 13.4375 5.31269 13.3479C5.20644 13.3104 5.10227 13.2646 5.00436 13.2104C4.93561 13.1729 4.87102 13.1229 4.81686 13.0646C4.71269 12.9542 4.70019 12.8021 4.77936 12.6729C4.81061 12.6229 4.85019 12.5792 4.89394 12.5375C5.00436 12.4354 5.13144 12.3562 5.26685 12.2937C5.4981 12.1875 5.73144 12.0854 5.96477 11.9854C7.56894 11.2896 9.1731 10.5917 10.7814 9.9C12.296 9.24791 13.8168 8.61041 15.3523 8.00833C15.7189 7.86458 16.0898 7.7375 16.4627 7.6125C16.6168 7.56041 16.7814 7.53125 16.9418 7.50208C17.0939 7.475 17.2439 7.49166 17.3898 7.54375C17.5606 7.60625 17.671 7.725 17.7043 7.90208C17.7273 8.02291 17.7335 8.14583 17.7481 8.27291C17.7252 8.48125 17.7064 8.69791 17.6793 8.91458Z" fill="#D9D9D9" fill-opacity="0.5"/>
</svg>
