<svg width="26" height="25" viewBox="0 0 26 25" fill="none" xmlns="http://www.w3.org/2000/svg">
<g filter="url(#filter0_b_187_3017)">
<path d="M12.5606 2.32922e-06C5.67821 -0.00416503 0.0585287 5.58426 0.0481103 12.4437C0.0376919 19.372 5.61987 24.9896 12.5231 25C19.4326 25.0104 25.0418 19.4095 25.0481 12.4937C25.0564 5.61552 19.4451 0.00208601 12.5606 2.32922e-06ZM18.9658 17.5008C18.2511 17.5008 17.5343 17.5008 16.8196 17.5008C16.6988 17.5008 16.6905 17.4967 16.6509 17.38C16.4592 16.8382 16.1883 16.3423 15.8195 15.9006C15.3069 15.2838 14.6755 14.8421 13.9087 14.6045C13.7045 14.542 13.4878 14.5107 13.2774 14.4649C13.2545 14.4607 13.2295 14.4607 13.2065 14.4587C13.1607 14.4566 13.1357 14.4816 13.1336 14.5253C13.1294 14.5691 13.1294 14.6149 13.1294 14.6587C13.1294 15.5422 13.1294 16.4256 13.1294 17.3091C13.1294 17.5008 13.1294 17.4987 12.9336 17.5008C12.3147 17.5071 11.7021 17.455 11.0958 17.33C9.92058 17.0883 8.86832 16.5986 7.97651 15.786C7.3139 15.1838 6.80548 14.467 6.42 13.6606C6.06786 12.9271 5.82823 12.1583 5.67196 11.3623C5.56778 10.8351 5.49485 10.3017 5.46151 9.76412C5.44901 9.55159 5.4365 9.34114 5.42608 9.1286C5.424 9.10151 5.42609 9.07443 5.42817 9.04734C5.43025 9.00358 5.45526 8.97858 5.49901 8.97441C5.5261 8.97233 5.55319 8.97233 5.58028 8.97233C6.24705 8.97233 6.91592 8.97233 7.58269 8.97233C7.73689 8.97233 7.7473 8.98274 7.75564 9.14319C7.77022 9.39948 7.77856 9.65577 7.80356 9.91206C7.88483 10.7872 8.06611 11.6374 8.41616 12.4479C8.66621 13.0272 8.99543 13.5585 9.44342 14.0086C9.77472 14.342 10.154 14.6108 10.5936 14.7837C10.6728 14.815 10.7561 14.84 10.8374 14.865C10.8624 14.8733 10.8895 14.8733 10.9228 14.8775C10.9312 14.8462 10.9416 14.8212 10.9437 14.7962C10.9478 14.7525 10.9458 14.7066 10.9458 14.6629C10.9458 12.8417 10.9458 11.0206 10.9458 9.19736C10.9458 9.14944 10.9458 9.10151 10.9478 9.05359C10.9499 9.00566 10.977 8.97858 11.0249 8.97441C11.0562 8.97233 11.0874 8.97233 11.1166 8.97233C11.7292 8.97233 12.3418 8.97233 12.9544 8.97233C13.1211 8.97233 13.1253 8.97649 13.1253 9.14736C13.1253 10.1434 13.1253 11.1394 13.1253 12.1374C13.1253 12.1791 13.1232 12.2208 13.1274 12.2604C13.1336 12.3291 13.1544 12.3458 13.219 12.3396C13.2836 12.3312 13.3482 12.3187 13.4107 12.3041C13.8525 12.1979 14.238 11.9812 14.5901 11.7019C15.2298 11.1956 15.709 10.5601 16.0653 9.8308C16.182 9.59326 16.2779 9.34947 16.3591 9.09735C16.3967 8.98066 16.4029 8.97649 16.5258 8.97649C17.1655 8.97649 17.8073 8.97649 18.447 8.97649C18.4678 8.97649 18.4887 8.97649 18.5095 8.97858C18.5574 8.98066 18.5762 9.00775 18.5699 9.05359C18.5658 9.08484 18.5595 9.11402 18.5533 9.14527C18.3345 10.1496 17.8698 11.0331 17.2135 11.8186C16.8363 12.2708 16.4092 12.6688 15.9257 13.0063C15.8507 13.0584 15.7715 13.1063 15.6945 13.1584C15.6674 13.1772 15.6424 13.198 15.6028 13.2293C15.6444 13.2564 15.6694 13.2751 15.6986 13.2897C16.3175 13.6043 16.8676 14.0148 17.3551 14.5066C18.1553 15.315 18.7241 16.2631 19.0513 17.355C19.0638 17.3966 19.07 17.4404 19.0804 17.4946C19.0388 17.4946 19.0033 17.5008 18.9658 17.5008Z" fill="#D9D9D9" fill-opacity="0.5"/>
</g>
<defs>
<filter id="filter0_b_187_3017" x="-19.9519" y="-20" width="65" height="65" filterUnits="userSpaceOnUse" color-interpolation-filters="sRGB">
<feFlood flood-opacity="0" result="BackgroundImageFix"/>
<feGaussianBlur in="BackgroundImageFix" stdDeviation="10"/>
<feComposite in2="SourceAlpha" operator="in" result="effect1_backgroundBlur_187_3017"/>
<feBlend mode="normal" in="SourceGraphic" in2="effect1_backgroundBlur_187_3017" result="shape"/>
</filter>
</defs>
</svg>
