<svg width="26" height="25" viewBox="0 0 26 25" fill="none" xmlns="http://www.w3.org/2000/svg">
<path d="M12.5481 0C5.64493 0 0.0480957 5.59683 0.0480957 12.5C0.0480957 19.4032 5.64493 25 12.5481 25C19.4513 25 25.0481 19.4032 25.0481 12.5C25.0481 5.59683 19.4513 0 12.5481 0ZM20.6405 12.4428C20.6273 12.7808 20.63 13.1206 20.5956 13.456C20.5692 13.7165 20.5076 13.9754 20.4407 14.2298C20.3421 14.6056 20.2391 14.9824 20.1097 15.3486C20.0129 15.6206 19.8817 15.882 19.7479 16.1391C19.5992 16.4269 19.4433 16.713 19.2673 16.9842C19.1273 17.2007 18.9618 17.4032 18.7902 17.5968C18.5437 17.8759 18.2919 18.1523 18.0234 18.4085C17.8087 18.6136 17.5683 18.7914 17.3342 18.9745C17.1916 19.0854 17.0446 19.1937 16.8896 19.287C16.6238 19.4472 16.358 19.6127 16.0771 19.7447C15.7567 19.8952 15.4257 20.0282 15.0904 20.14C14.7752 20.2447 14.4513 20.3301 14.1247 20.3917C13.7743 20.4577 13.4161 20.4912 13.0604 20.5291C12.8166 20.5546 12.5701 20.5801 12.3254 20.5722C12.0815 20.5651 11.8386 20.515 11.5956 20.4859C11.527 20.4771 11.4565 20.4771 11.3879 20.4674C10.8694 20.3908 10.3694 20.2491 9.87028 20.0845C9.58067 19.9894 9.30602 19.8688 9.02961 19.7482C8.92662 19.7033 8.83067 19.6426 8.72855 19.596C8.68718 19.5775 8.6326 19.5634 8.59211 19.5739C8.14141 19.6963 7.69422 19.8266 7.24352 19.9481C7.01817 20.0088 6.78753 20.0502 6.56218 20.11C5.9988 20.2614 5.43718 20.4181 4.8738 20.5722C4.77433 20.5995 4.67398 20.6285 4.57274 20.6505C4.45655 20.6752 4.40901 20.618 4.4407 20.5035C4.60091 19.9384 4.76288 19.3732 4.91957 18.8063C5.10795 18.1285 5.28049 17.4454 5.48472 16.7711C5.53929 16.5889 5.52257 16.4533 5.43718 16.2949C5.29369 16.0273 5.14757 15.7579 5.04457 15.4745C4.90373 15.0898 4.80514 14.6893 4.68366 14.2975C4.43014 13.4833 4.46447 12.6444 4.4856 11.809C4.49792 11.3072 4.60707 10.8151 4.7532 10.3336C4.83859 10.0528 4.91429 9.76849 5.00848 9.49032C5.06218 9.33099 5.1326 9.17606 5.21359 9.02905C5.40725 8.67606 5.59123 8.31602 5.81658 7.98415C6.04105 7.65317 6.30074 7.34331 6.56482 7.04137C6.79105 6.78257 7.03753 6.53873 7.29193 6.30634C7.48207 6.13204 7.69422 5.97975 7.90549 5.83011C8.36148 5.50616 8.84739 5.22799 9.36324 5.01497C9.73736 4.86004 10.1282 4.74032 10.5182 4.62764C10.9328 4.50792 11.3571 4.44014 11.7893 4.38996C12.2321 4.33803 12.6749 4.33099 13.1115 4.36444C13.725 4.41021 14.3377 4.50528 14.9222 4.72359C15.2259 4.83715 15.5393 4.9243 15.8395 5.04666C16.0367 5.12676 16.218 5.24736 16.4073 5.35035C16.5058 5.40405 16.608 5.45158 16.7013 5.5132C16.9935 5.70511 17.2937 5.88644 17.5675 6.10123C17.8412 6.3169 18.1027 6.55194 18.3412 6.80546C18.6185 7.10123 18.8668 7.42342 19.1229 7.73768C19.2374 7.87852 19.3518 8.02113 19.446 8.1743C19.5631 8.3662 19.6634 8.56778 19.7646 8.76849C19.8562 8.9507 19.9521 9.13116 20.0226 9.3213C20.1396 9.64085 20.2453 9.96567 20.343 10.2914C20.4161 10.5352 20.4918 10.7826 20.5252 11.0335C20.5877 11.5 20.6203 11.9701 20.6652 12.4393C20.6573 12.4401 20.6484 12.4419 20.6405 12.4428ZM19.2074 11.1048C19.1036 10.735 19.0041 10.3627 18.8712 10.0026C18.7594 9.69982 18.6159 9.40669 18.4653 9.12148C18.3527 8.90845 18.2127 8.70775 18.071 8.51144C17.9249 8.30898 17.7673 8.11356 17.6044 7.9243C17.4918 7.79313 17.3659 7.67342 17.2391 7.55634C17.0587 7.38908 16.8782 7.22183 16.6863 7.06866C16.5296 6.94278 16.3588 6.83539 16.1916 6.72359C15.7752 6.44542 15.3254 6.23239 14.8527 6.07394C14.4759 5.94806 14.0956 5.84067 13.703 5.76408C13.3069 5.68662 12.9125 5.66989 12.5173 5.66109C12.0824 5.65141 11.6484 5.71303 11.2189 5.79489C10.6705 5.89965 10.1564 6.10387 9.65197 6.32746C9.36236 6.45599 9.09387 6.63732 8.82802 6.81338C8.56218 6.98944 8.29281 7.16725 8.05778 7.38116C7.61676 7.78169 7.20743 8.21479 6.89669 8.72975C6.73119 9.00264 6.55778 9.27201 6.41517 9.55722C6.30338 9.77993 6.24088 10.0273 6.14581 10.2588C5.90197 10.8548 5.80602 11.4842 5.76376 12.1162C5.73648 12.5317 5.78137 12.9542 5.82626 13.3706C5.85707 13.6514 5.9275 13.9322 6.012 14.2025C6.13348 14.5898 6.26376 14.9754 6.42838 15.346C6.56658 15.6567 6.76024 15.9428 6.9231 16.2438C6.9495 16.294 6.95655 16.3671 6.94334 16.4225C6.89229 16.632 6.82979 16.8398 6.77081 17.0475C6.6907 17.3257 6.60795 17.603 6.53137 17.8812C6.45038 18.1761 6.37556 18.4718 6.28841 18.8019C6.37116 18.7914 6.41341 18.7896 6.45391 18.779C6.80162 18.6937 7.15109 18.6109 7.49704 18.5185C7.86852 18.419 8.23736 18.3125 8.60619 18.2042C8.76289 18.1585 8.89757 18.1576 9.0481 18.2518C9.29193 18.4058 9.54722 18.5502 9.81306 18.6585C10.1608 18.8002 10.5208 18.9129 10.8808 19.0185C11.1405 19.0951 11.4073 19.1734 11.6757 19.1928C12.3271 19.2394 12.9821 19.2826 13.6308 19.1505C13.902 19.096 14.181 19.0651 14.4398 18.9745C14.9073 18.8125 15.3896 18.6796 15.8078 18.3961C16.019 18.2535 16.2567 18.1488 16.4583 17.9956C16.7752 17.7562 17.0807 17.5009 17.3729 17.2324C17.5631 17.0572 17.7347 16.8574 17.8905 16.6505C18.0763 16.4032 18.2576 16.147 18.4028 15.875C18.6009 15.5062 18.7814 15.125 18.9337 14.735C19.0463 14.4481 19.1168 14.1408 19.181 13.8371C19.2532 13.4965 19.3148 13.1523 19.3474 12.8055C19.3879 12.382 19.3377 11.9586 19.2823 11.5379C19.2638 11.3926 19.247 11.2456 19.2074 11.1048ZM16.424 15.4824C16.3553 15.6153 16.2268 15.7236 16.1071 15.8213C15.9768 15.9269 15.8289 16.0132 15.6828 16.0968C15.3536 16.2852 15.1493 16.3116 14.6564 16.3081C14.6546 16.3187 14.6528 16.3292 14.6511 16.3398C14.3747 16.2958 14.0921 16.2729 13.8227 16.2016C13.5789 16.1373 13.3483 16.022 13.1132 15.9261C12.9372 15.8548 12.7594 15.787 12.5912 15.6998C12.3051 15.5511 12.0146 15.4067 11.7488 15.228C11.4671 15.0387 11.2021 14.8222 10.9469 14.5977C10.652 14.338 10.3703 14.0625 10.0921 13.7835C9.96183 13.6523 9.85003 13.5009 9.73912 13.3521C9.52345 13.0607 9.31746 12.7614 9.10091 12.4701C8.84035 12.118 8.67926 11.7174 8.55426 11.3046C8.47503 11.0458 8.44422 10.772 8.46271 10.4956C8.47767 10.257 8.52609 10.0308 8.6194 9.80722C8.70743 9.59859 8.78577 9.38908 8.93894 9.21919C9.09915 9.04137 9.2356 8.82482 9.48295 8.7588C9.61764 8.72359 9.76729 8.75 9.90637 8.72535C10.2374 8.66637 10.409 8.84859 10.5208 9.11796C10.6256 9.36884 10.7153 9.62676 10.8183 9.87852C10.9134 10.11 11.0111 10.3407 11.1185 10.5669C11.1863 10.7104 11.1766 10.8336 11.1036 10.9736C10.9786 11.2157 10.7955 11.4076 10.6168 11.6056C10.4988 11.7359 10.4935 11.9146 10.5719 12.0731C10.7541 12.4401 11.0129 12.7526 11.2778 13.0563C11.527 13.3415 11.8016 13.6083 12.1308 13.8081C12.3782 13.9577 12.615 14.1259 12.8685 14.2641C13.0648 14.3706 13.277 14.4525 13.4891 14.5238C13.5516 14.544 13.6652 14.5141 13.7092 14.4657C13.9398 14.2139 14.1643 13.9551 14.3738 13.6875C14.5226 13.4974 14.6661 13.4401 14.8905 13.544C15.2814 13.7262 15.6705 13.9146 16.0595 14.1012C16.2109 14.1743 16.3606 14.2544 16.5129 14.3266C16.6018 14.3688 16.6423 14.434 16.6432 14.5317C16.6449 14.8662 16.5763 15.1884 16.424 15.4824Z" fill="#81868B"/>
</svg>
