<svg width="26" height="25" viewBox="0 0 26 25" fill="none" xmlns="http://www.w3.org/2000/svg">
<path d="M13.0976 22.9163C13.2076 21.3379 13.3121 19.7632 13.7411 18.2295C14.4426 15.7275 16.1737 14.3413 18.6044 13.7013C20.5034 13.2013 22.4472 13.0931 24.3985 13.0502C24.8779 13.039 25.0869 13.2834 25.0365 13.789C24.7828 16.3544 23.8221 18.6307 22.1581 20.5953C20.0669 23.0675 17.3918 24.5022 14.1907 24.9649C14.0508 24.9855 13.9072 24.9948 13.7654 24.9985C13.3251 25.0116 13.1069 24.8119 13.0976 24.366C13.0901 23.8847 13.0976 23.4014 13.0976 22.9163Z" fill="#D9D9D9" fill-opacity="0.5"/>
<path d="M13.0991 2.09236C13.0991 1.69495 13.1047 1.29568 13.0972 0.898273C13.0823 0.10719 13.2558 -0.0719234 14.0542 0.0232305C16.3525 0.297498 18.4287 1.13336 20.2494 2.5644C22.9469 4.68577 24.5195 7.46389 25.0101 10.8577C25.0325 11.0126 25.0418 11.1693 25.0474 11.326C25.0623 11.7085 24.8571 11.9492 24.4934 11.9417C22.2156 11.8969 19.9454 11.7831 17.7609 11.0256C15.2537 10.1562 13.9404 8.30908 13.5114 5.77911C13.3062 4.56263 13.2166 3.32563 13.073 2.09796C13.0842 2.09609 13.0917 2.09423 13.0991 2.09236Z" fill="#D9D9D9" fill-opacity="0.5"/>
<path d="M12.0053 2.00299C11.8337 3.35567 11.7218 4.71955 11.4792 6.05916C10.9606 8.91378 9.19032 10.6042 6.41452 11.3094C4.53973 11.7871 2.62577 11.9046 0.702475 11.9475C0.204397 11.9587 0.00479285 11.7199 0.0588912 11.1751C0.306998 8.68616 1.2304 6.46777 2.81977 4.54043C4.92215 1.9918 7.62893 0.504787 10.8954 0.0346148C11.0222 0.0159571 11.1509 0.00849408 11.2778 0.00476255C11.7404 -0.0101636 11.9381 0.16895 11.9475 0.627927C11.9568 1.08317 11.9493 1.53842 11.9493 1.99367C11.968 1.99553 11.9866 1.99926 12.0053 2.00299Z" fill="#D9D9D9" fill-opacity="0.5"/>
<path d="M11.948 23.0451C11.948 23.4575 11.948 23.8698 11.948 24.284C11.9462 24.8493 11.7559 25.0471 11.1981 24.9911C8.98383 24.7672 6.96727 23.9967 5.17642 22.6813C2.29242 20.5599 0.609775 17.7053 0.0855803 14.166C0.0594638 13.9831 0.0464056 13.7966 0.048271 13.6118C0.0501365 13.2723 0.242279 13.0484 0.568735 13.0558C3.01809 13.1118 5.46744 13.2051 7.77874 14.1622C9.88298 15.0336 11.0452 16.6792 11.4593 18.8509C11.7223 20.2297 11.8324 21.6365 12.0115 23.0321C11.991 23.0377 11.9704 23.0414 11.948 23.0451Z" fill="#D9D9D9" fill-opacity="0.5"/>
</svg>
