<svg width="26" height="25" viewBox="0 0 26 25" fill="none" xmlns="http://www.w3.org/2000/svg">
<path d="M12.5602 1.8677e-06C19.444 0.00373321 25.0555 5.61567 25.0481 12.4925C25.0406 19.4086 19.431 25.0112 12.5229 25C5.61859 24.9888 0.0369193 19.3694 0.0481125 12.444C0.0593057 5.58395 5.67828 -0.00372947 12.5602 1.8677e-06ZM12.577 17.4347C14.1683 17.3731 15.7951 17.3228 17.4218 17.2407C18.1885 17.2033 18.7426 16.806 19.0168 16.0784C19.125 15.7929 19.2034 15.4869 19.2444 15.1847C19.4179 13.9384 19.4291 12.6847 19.3769 11.431C19.3508 10.791 19.2948 10.1474 19.1903 9.51492C19.0243 8.5 18.5094 7.94962 17.6289 7.77612C17.4143 7.73321 17.1923 7.71641 16.9741 7.71268C14.9071 7.67537 12.8401 7.625 10.773 7.6194C9.73208 7.61753 8.69112 7.68843 7.65015 7.75559C6.94685 7.80037 6.40771 8.14365 6.12788 8.80597C5.99729 9.11753 5.90028 9.45335 5.85364 9.78731C5.66709 11.0728 5.66336 12.3694 5.72306 13.6623C5.75477 14.3507 5.82006 15.0448 5.96184 15.7183C6.17078 16.7034 6.77522 17.1978 7.78074 17.25C9.36457 17.3302 10.9521 17.375 12.577 17.4347Z" fill="#D9D9D9" fill-opacity="0.5"/>
<path d="M11.2002 10.373C12.424 11.0167 13.6198 11.6473 14.866 12.3021C13.6254 12.9551 12.424 13.5876 11.2002 14.2331C11.2002 12.9383 11.2002 11.6809 11.2002 10.373Z" fill="#D9D9D9" fill-opacity="0.5"/>
</svg>
