<svg width="1399" height="162" viewBox="0 0 1399 162" fill="none" xmlns="http://www.w3.org/2000/svg">
<mask id="path-1-outside-1_187_2736" maskUnits="userSpaceOnUse" x="323.678" y="94.4385" width="1076" height="68" fill="black">
<rect fill="white" x="323.678" y="94.4385" width="1076" height="68"/>
<path d="M381.046 114.643H335.449C331.386 114.838 328.161 118.094 327.967 122.195V154.815H324.678V160.219H384.335V154.815H381.046V114.643ZM333.256 154.815V122.456C333.32 121.805 333.578 121.219 334.03 120.763C334.481 120.307 335.062 120.047 335.707 119.982H375.693V154.815H333.256Z"/>
<path d="M435.518 119.982V114.643H393.081V160.153H435.518V154.815H398.369V140.1H435.518V134.761H398.369V119.982H435.518Z"/>
<path d="M453.319 114.643C449.256 114.838 446.032 118.094 445.838 122.195V152.406C445.774 153.057 445.516 153.643 445.064 154.098C444.613 154.554 444.032 154.815 443.387 154.815H442.549V160.153H443.645C447.708 160.023 450.933 156.703 451.127 152.666V122.456C451.127 121.805 451.449 121.219 451.901 120.763C452.352 120.307 452.932 120.047 453.577 119.982H493.564V160.153H498.917V114.643H453.319Z"/>
<path d="M563.735 121.805C563.541 117.703 560.317 114.447 556.254 114.252C549.74 113.927 543.226 113.796 536.776 113.796C530.262 113.796 523.749 113.927 517.299 114.252C513.236 114.447 510.011 117.703 509.818 121.805C509.237 132.222 509.237 142.639 509.818 153.057C510.011 157.093 513.236 160.414 517.299 160.544C523.749 160.87 530.262 161 536.776 161C543.226 161 549.74 160.87 556.254 160.544C560.317 160.414 563.541 157.093 563.735 153.057C564.251 142.639 564.251 132.222 563.735 121.805ZM558.446 152.796C558.382 153.382 558.124 154.033 557.672 154.489C557.221 154.945 556.641 155.205 555.996 155.205C549.611 155.531 543.161 155.661 536.776 155.661C530.391 155.661 523.878 155.531 517.493 155.205C516.912 155.205 516.267 154.945 515.816 154.489C515.364 154.033 515.106 153.382 515.106 152.796C514.59 142.574 514.59 132.222 515.106 122.065C515.106 121.414 515.364 120.828 515.816 120.372C516.267 119.917 516.912 119.656 517.493 119.591C523.878 119.331 530.391 119.135 536.776 119.135C543.161 119.135 549.611 119.331 555.996 119.591C556.641 119.656 557.221 119.917 557.672 120.372C558.124 120.828 558.382 121.414 558.446 122.065C558.962 132.222 558.962 142.574 558.446 152.796Z"/>
<path d="M652.447 152.796C652.382 153.382 652.124 154.033 651.673 154.489C651.221 154.945 650.641 155.205 649.996 155.205C643.611 155.531 637.162 155.661 630.777 155.661C624.392 155.661 617.878 155.531 611.493 155.205C610.912 155.205 610.267 154.945 609.816 154.489C609.365 154.033 609.107 153.382 609.107 152.796C608.591 142.574 608.591 132.222 609.107 122.065C609.107 121.414 609.365 120.828 609.816 120.372C610.267 119.917 610.912 119.656 611.493 119.591C617.878 119.331 624.392 119.135 630.777 119.135C637.162 119.135 643.611 119.331 649.996 119.591C650.641 119.656 651.221 119.917 651.673 120.372C652.124 120.828 652.382 121.414 652.447 122.065C652.511 123.367 652.576 124.669 652.576 126.037H657.929C657.864 124.604 657.8 123.172 657.735 121.805C657.542 117.703 654.317 114.447 650.254 114.252C643.74 113.927 637.226 113.796 630.777 113.796C624.263 113.796 617.749 113.927 611.299 114.252C607.236 114.447 604.012 117.703 603.818 121.805C603.302 132.222 603.238 142.639 603.818 153.057C604.012 157.093 607.236 160.414 611.299 160.544C617.749 160.87 624.263 161 630.777 161C637.226 161 643.74 160.87 650.254 160.544C654.317 160.414 657.542 157.093 657.735 153.057C657.8 151.624 657.864 150.192 657.929 148.825H652.576C652.576 150.127 652.511 151.429 652.447 152.796Z"/>
<path d="M666.753 114.643V160.153H672.041V119.982H714.478V160.153H719.767V114.643H666.753Z"/>
<path d="M773.132 119.982V114.643H730.695V160.153H773.132V154.815H735.984V140.1H773.132V134.761H735.984V119.982H773.132Z"/>
<path d="M824.858 154.815V114.643H819.505V154.815H787.709V114.643H782.421V160.219H828.147V154.815H824.858Z"/>
<path d="M833.173 96.4385V103.913H859.087V160.153H866.581V103.913H892.585V96.4385H833.173Z"/>
<path d="M961.519 103.913V96.4385H902.107V160.153H961.519V152.679H909.511V132.079H961.519V124.604H909.511V103.913H961.519Z"/>
<path d="M1051.99 96.4385H1040.71L1010.19 123.328L979.759 96.4385H968.473L1004.59 128.342L968.473 160.153H979.759L1010.19 133.264L1040.71 160.153H1051.99L1015.88 128.342L1051.99 96.4385Z"/>
<path d="M1128.12 96.4385V124.604H1068.71V96.4385H1061.31V160.153H1068.71V132.079H1128.12V160.153H1135.53V96.4385H1128.12Z"/>
<path d="M1211.95 96.4385L1160.67 152.679H1158.23V96.4385H1150.83V160.153H1163.92L1215.56 103.913H1217.64V160.153H1225.05V96.4385H1211.95Z"/>
<path d="M1314.66 96.4385L1301.38 96.5296L1260.48 124.604H1247.84V96.4385H1240.44V160.245H1247.84V132.079H1260.57L1301.47 160.245L1314.66 160.153L1268.25 128.342L1314.66 96.4385Z"/>
<path d="M1384.91 96.4385L1333.62 152.679H1331.18V96.4385H1323.78V160.153H1336.87L1388.52 103.913H1390.6V160.153H1398V96.4385H1384.91Z"/>
</mask>
<path d="M381.046 114.643H335.449C331.386 114.838 328.161 118.094 327.967 122.195V154.815H324.678V160.219H384.335V154.815H381.046V114.643ZM333.256 154.815V122.456C333.32 121.805 333.578 121.219 334.03 120.763C334.481 120.307 335.062 120.047 335.707 119.982H375.693V154.815H333.256Z" fill="url(#paint0_linear_187_2736)"/>
<path d="M435.518 119.982V114.643H393.081V160.153H435.518V154.815H398.369V140.1H435.518V134.761H398.369V119.982H435.518Z" fill="url(#paint1_linear_187_2736)"/>
<path d="M453.319 114.643C449.256 114.838 446.032 118.094 445.838 122.195V152.406C445.774 153.057 445.516 153.643 445.064 154.098C444.613 154.554 444.032 154.815 443.387 154.815H442.549V160.153H443.645C447.708 160.023 450.933 156.703 451.127 152.666V122.456C451.127 121.805 451.449 121.219 451.901 120.763C452.352 120.307 452.932 120.047 453.577 119.982H493.564V160.153H498.917V114.643H453.319Z" fill="url(#paint2_linear_187_2736)"/>
<path d="M563.735 121.805C563.541 117.703 560.317 114.447 556.254 114.252C549.74 113.927 543.226 113.796 536.776 113.796C530.262 113.796 523.749 113.927 517.299 114.252C513.236 114.447 510.011 117.703 509.818 121.805C509.237 132.222 509.237 142.639 509.818 153.057C510.011 157.093 513.236 160.414 517.299 160.544C523.749 160.87 530.262 161 536.776 161C543.226 161 549.74 160.87 556.254 160.544C560.317 160.414 563.541 157.093 563.735 153.057C564.251 142.639 564.251 132.222 563.735 121.805ZM558.446 152.796C558.382 153.382 558.124 154.033 557.672 154.489C557.221 154.945 556.641 155.205 555.996 155.205C549.611 155.531 543.161 155.661 536.776 155.661C530.391 155.661 523.878 155.531 517.493 155.205C516.912 155.205 516.267 154.945 515.816 154.489C515.364 154.033 515.106 153.382 515.106 152.796C514.59 142.574 514.59 132.222 515.106 122.065C515.106 121.414 515.364 120.828 515.816 120.372C516.267 119.917 516.912 119.656 517.493 119.591C523.878 119.331 530.391 119.135 536.776 119.135C543.161 119.135 549.611 119.331 555.996 119.591C556.641 119.656 557.221 119.917 557.672 120.372C558.124 120.828 558.382 121.414 558.446 122.065C558.962 132.222 558.962 142.574 558.446 152.796Z" fill="url(#paint3_linear_187_2736)"/>
<path d="M652.447 152.796C652.382 153.382 652.124 154.033 651.673 154.489C651.221 154.945 650.641 155.205 649.996 155.205C643.611 155.531 637.162 155.661 630.777 155.661C624.392 155.661 617.878 155.531 611.493 155.205C610.912 155.205 610.267 154.945 609.816 154.489C609.365 154.033 609.107 153.382 609.107 152.796C608.591 142.574 608.591 132.222 609.107 122.065C609.107 121.414 609.365 120.828 609.816 120.372C610.267 119.917 610.912 119.656 611.493 119.591C617.878 119.331 624.392 119.135 630.777 119.135C637.162 119.135 643.611 119.331 649.996 119.591C650.641 119.656 651.221 119.917 651.673 120.372C652.124 120.828 652.382 121.414 652.447 122.065C652.511 123.367 652.576 124.669 652.576 126.037H657.929C657.864 124.604 657.8 123.172 657.735 121.805C657.542 117.703 654.317 114.447 650.254 114.252C643.74 113.927 637.226 113.796 630.777 113.796C624.263 113.796 617.749 113.927 611.299 114.252C607.236 114.447 604.012 117.703 603.818 121.805C603.302 132.222 603.238 142.639 603.818 153.057C604.012 157.093 607.236 160.414 611.299 160.544C617.749 160.87 624.263 161 630.777 161C637.226 161 643.74 160.87 650.254 160.544C654.317 160.414 657.542 157.093 657.735 153.057C657.8 151.624 657.864 150.192 657.929 148.825H652.576C652.576 150.127 652.511 151.429 652.447 152.796Z" fill="url(#paint4_linear_187_2736)"/>
<path d="M666.753 114.643V160.153H672.041V119.982H714.478V160.153H719.767V114.643H666.753Z" fill="url(#paint5_linear_187_2736)"/>
<path d="M773.132 119.982V114.643H730.695V160.153H773.132V154.815H735.984V140.1H773.132V134.761H735.984V119.982H773.132Z" fill="url(#paint6_linear_187_2736)"/>
<path d="M824.858 154.815V114.643H819.505V154.815H787.709V114.643H782.421V160.219H828.147V154.815H824.858Z" fill="url(#paint7_linear_187_2736)"/>
<path d="M833.173 96.4385V103.913H859.087V160.153H866.581V103.913H892.585V96.4385H833.173Z" fill="url(#paint8_linear_187_2736)"/>
<path d="M961.519 103.913V96.4385H902.107V160.153H961.519V152.679H909.511V132.079H961.519V124.604H909.511V103.913H961.519Z" fill="url(#paint9_linear_187_2736)"/>
<path d="M1051.99 96.4385H1040.71L1010.19 123.328L979.759 96.4385H968.473L1004.59 128.342L968.473 160.153H979.759L1010.19 133.264L1040.71 160.153H1051.99L1015.88 128.342L1051.99 96.4385Z" fill="url(#paint10_linear_187_2736)"/>
<path d="M1128.12 96.4385V124.604H1068.71V96.4385H1061.31V160.153H1068.71V132.079H1128.12V160.153H1135.53V96.4385H1128.12Z" fill="url(#paint11_linear_187_2736)"/>
<path d="M1211.95 96.4385L1160.67 152.679H1158.23V96.4385H1150.83V160.153H1163.92L1215.56 103.913H1217.64V160.153H1225.05V96.4385H1211.95Z" fill="url(#paint12_linear_187_2736)"/>
<path d="M1314.66 96.4385L1301.38 96.5296L1260.48 124.604H1247.84V96.4385H1240.44V160.245H1247.84V132.079H1260.57L1301.47 160.245L1314.66 160.153L1268.25 128.342L1314.66 96.4385Z" fill="url(#paint13_linear_187_2736)"/>
<path d="M1384.91 96.4385L1333.62 152.679H1331.18V96.4385H1323.78V160.153H1336.87L1388.52 103.913H1390.6V160.153H1398V96.4385H1384.91Z" fill="url(#paint14_linear_187_2736)"/>
<path d="M381.046 114.643H335.449C331.386 114.838 328.161 118.094 327.967 122.195V154.815H324.678V160.219H384.335V154.815H381.046V114.643ZM333.256 154.815V122.456C333.32 121.805 333.578 121.219 334.03 120.763C334.481 120.307 335.062 120.047 335.707 119.982H375.693V154.815H333.256Z" stroke="url(#paint15_linear_187_2736)" stroke-width="2" mask="url(#path-1-outside-1_187_2736)"/>
<path d="M435.518 119.982V114.643H393.081V160.153H435.518V154.815H398.369V140.1H435.518V134.761H398.369V119.982H435.518Z" stroke="url(#paint16_linear_187_2736)" stroke-width="2" mask="url(#path-1-outside-1_187_2736)"/>
<path d="M453.319 114.643C449.256 114.838 446.032 118.094 445.838 122.195V152.406C445.774 153.057 445.516 153.643 445.064 154.098C444.613 154.554 444.032 154.815 443.387 154.815H442.549V160.153H443.645C447.708 160.023 450.933 156.703 451.127 152.666V122.456C451.127 121.805 451.449 121.219 451.901 120.763C452.352 120.307 452.932 120.047 453.577 119.982H493.564V160.153H498.917V114.643H453.319Z" stroke="url(#paint17_linear_187_2736)" stroke-width="2" mask="url(#path-1-outside-1_187_2736)"/>
<path d="M563.735 121.805C563.541 117.703 560.317 114.447 556.254 114.252C549.74 113.927 543.226 113.796 536.776 113.796C530.262 113.796 523.749 113.927 517.299 114.252C513.236 114.447 510.011 117.703 509.818 121.805C509.237 132.222 509.237 142.639 509.818 153.057C510.011 157.093 513.236 160.414 517.299 160.544C523.749 160.87 530.262 161 536.776 161C543.226 161 549.74 160.87 556.254 160.544C560.317 160.414 563.541 157.093 563.735 153.057C564.251 142.639 564.251 132.222 563.735 121.805ZM558.446 152.796C558.382 153.382 558.124 154.033 557.672 154.489C557.221 154.945 556.641 155.205 555.996 155.205C549.611 155.531 543.161 155.661 536.776 155.661C530.391 155.661 523.878 155.531 517.493 155.205C516.912 155.205 516.267 154.945 515.816 154.489C515.364 154.033 515.106 153.382 515.106 152.796C514.59 142.574 514.59 132.222 515.106 122.065C515.106 121.414 515.364 120.828 515.816 120.372C516.267 119.917 516.912 119.656 517.493 119.591C523.878 119.331 530.391 119.135 536.776 119.135C543.161 119.135 549.611 119.331 555.996 119.591C556.641 119.656 557.221 119.917 557.672 120.372C558.124 120.828 558.382 121.414 558.446 122.065C558.962 132.222 558.962 142.574 558.446 152.796Z" stroke="url(#paint18_linear_187_2736)" stroke-width="2" mask="url(#path-1-outside-1_187_2736)"/>
<path d="M652.447 152.796C652.382 153.382 652.124 154.033 651.673 154.489C651.221 154.945 650.641 155.205 649.996 155.205C643.611 155.531 637.162 155.661 630.777 155.661C624.392 155.661 617.878 155.531 611.493 155.205C610.912 155.205 610.267 154.945 609.816 154.489C609.365 154.033 609.107 153.382 609.107 152.796C608.591 142.574 608.591 132.222 609.107 122.065C609.107 121.414 609.365 120.828 609.816 120.372C610.267 119.917 610.912 119.656 611.493 119.591C617.878 119.331 624.392 119.135 630.777 119.135C637.162 119.135 643.611 119.331 649.996 119.591C650.641 119.656 651.221 119.917 651.673 120.372C652.124 120.828 652.382 121.414 652.447 122.065C652.511 123.367 652.576 124.669 652.576 126.037H657.929C657.864 124.604 657.8 123.172 657.735 121.805C657.542 117.703 654.317 114.447 650.254 114.252C643.74 113.927 637.226 113.796 630.777 113.796C624.263 113.796 617.749 113.927 611.299 114.252C607.236 114.447 604.012 117.703 603.818 121.805C603.302 132.222 603.238 142.639 603.818 153.057C604.012 157.093 607.236 160.414 611.299 160.544C617.749 160.87 624.263 161 630.777 161C637.226 161 643.74 160.87 650.254 160.544C654.317 160.414 657.542 157.093 657.735 153.057C657.8 151.624 657.864 150.192 657.929 148.825H652.576C652.576 150.127 652.511 151.429 652.447 152.796Z" stroke="url(#paint19_linear_187_2736)" stroke-width="2" mask="url(#path-1-outside-1_187_2736)"/>
<path d="M666.753 114.643V160.153H672.041V119.982H714.478V160.153H719.767V114.643H666.753Z" stroke="url(#paint20_linear_187_2736)" stroke-width="2" mask="url(#path-1-outside-1_187_2736)"/>
<path d="M773.132 119.982V114.643H730.695V160.153H773.132V154.815H735.984V140.1H773.132V134.761H735.984V119.982H773.132Z" stroke="url(#paint21_linear_187_2736)" stroke-width="2" mask="url(#path-1-outside-1_187_2736)"/>
<path d="M824.858 154.815V114.643H819.505V154.815H787.709V114.643H782.421V160.219H828.147V154.815H824.858Z" stroke="url(#paint22_linear_187_2736)" stroke-width="2" mask="url(#path-1-outside-1_187_2736)"/>
<path d="M833.173 96.4385V103.913H859.087V160.153H866.581V103.913H892.585V96.4385H833.173Z" stroke="url(#paint23_linear_187_2736)" stroke-width="2" mask="url(#path-1-outside-1_187_2736)"/>
<path d="M961.519 103.913V96.4385H902.107V160.153H961.519V152.679H909.511V132.079H961.519V124.604H909.511V103.913H961.519Z" stroke="url(#paint24_linear_187_2736)" stroke-width="2" mask="url(#path-1-outside-1_187_2736)"/>
<path d="M1051.99 96.4385H1040.71L1010.19 123.328L979.759 96.4385H968.473L1004.59 128.342L968.473 160.153H979.759L1010.19 133.264L1040.71 160.153H1051.99L1015.88 128.342L1051.99 96.4385Z" stroke="url(#paint25_linear_187_2736)" stroke-width="2" mask="url(#path-1-outside-1_187_2736)"/>
<path d="M1128.12 96.4385V124.604H1068.71V96.4385H1061.31V160.153H1068.71V132.079H1128.12V160.153H1135.53V96.4385H1128.12Z" stroke="url(#paint26_linear_187_2736)" stroke-width="2" mask="url(#path-1-outside-1_187_2736)"/>
<path d="M1211.95 96.4385L1160.67 152.679H1158.23V96.4385H1150.83V160.153H1163.92L1215.56 103.913H1217.64V160.153H1225.05V96.4385H1211.95Z" stroke="url(#paint27_linear_187_2736)" stroke-width="2" mask="url(#path-1-outside-1_187_2736)"/>
<path d="M1314.66 96.4385L1301.38 96.5296L1260.48 124.604H1247.84V96.4385H1240.44V160.245H1247.84V132.079H1260.57L1301.47 160.245L1314.66 160.153L1268.25 128.342L1314.66 96.4385Z" stroke="url(#paint28_linear_187_2736)" stroke-width="2" mask="url(#path-1-outside-1_187_2736)"/>
<path d="M1384.91 96.4385L1333.62 152.679H1331.18V96.4385H1323.78V160.153H1336.87L1388.52 103.913H1390.6V160.153H1398V96.4385H1384.91Z" stroke="url(#paint29_linear_187_2736)" stroke-width="2" mask="url(#path-1-outside-1_187_2736)"/>
<path d="M59.1443 2.02175V26.2295H10.4946C9.70988 26.2295 9.00368 25.9151 8.4544 25.3649C7.90513 24.8147 7.59126 24.1074 7.51279 23.3214V2.02175H1.07847V23.6358C1.31387 28.5874 5.23724 32.5172 10.1807 32.753H59.1443C59.0659 37.3116 58.9089 43.5993 58.752 47.0575C58.6735 47.8435 58.3597 48.5509 57.8104 49.1011C57.2611 49.6512 56.5549 49.9656 55.7703 49.9656C48.002 50.3586 40.1552 50.5158 32.387 50.5158C24.6187 50.5158 18.3413 50.3586 10.573 49.9656C9.78835 49.9656 9.08214 49.6512 8.53287 49.1011C7.9836 48.5509 7.66973 47.8435 7.59126 47.0575C7.51279 45.407 7.51279 43.8351 7.43433 42.2632H1C1 43.9923 1.07847 45.6428 1.15694 47.3719C1.39234 52.3235 5.39417 56.2533 10.2592 56.4891C18.1844 56.8035 24.4618 56.9607 32.387 56.9607C40.2337 56.9607 48.1589 56.8035 56.0841 56.4891C60.9491 56.2533 64.9509 52.3235 65.1863 47.3719C65.4217 43.1277 65.5787 36.6042 65.6571 32.2028V2.02175H59.1443Z" fill="url(#paint30_linear_187_2736)"/>
<path d="M137.755 48.0793C137.676 48.7867 137.362 49.5726 136.813 50.1228C136.264 50.673 135.558 50.9874 134.773 50.9874C127.005 51.3804 119.158 51.5375 111.39 51.5375C103.621 51.5375 95.6961 51.3804 87.9278 50.9874C87.2216 50.9874 86.4369 50.673 85.8876 50.1228C85.3384 49.5726 85.0245 48.7867 85.0245 48.0793C84.3968 35.7396 84.3968 23.2428 85.0245 10.9818C85.0245 10.1958 85.3384 9.48842 85.8876 8.93825C86.4369 8.38807 87.2216 8.07368 87.9278 7.99509C95.6961 7.6807 103.621 7.44491 111.39 7.44491C119.158 7.44491 127.005 7.6807 134.773 7.99509C135.558 8.07368 136.264 8.38807 136.813 8.93825C137.362 9.48842 137.676 10.1958 137.755 10.9818C137.833 12.5537 137.912 14.1256 137.912 15.7761H144.424C144.346 14.047 144.267 12.3179 144.189 10.6674C143.954 5.71579 140.03 1.78596 135.087 1.55017C127.161 1.15719 119.236 1 111.39 1C103.464 1 95.5391 1.15719 87.6924 1.55017C82.7489 1.78596 78.8256 5.71579 78.5902 10.6674C77.9624 23.2428 77.884 35.8182 78.5902 48.3937C78.8256 53.2667 82.7489 57.2751 87.6924 57.4323C95.5391 57.8253 103.464 57.9825 111.39 57.9825C119.236 57.9825 127.161 57.8253 135.087 57.4323C140.03 57.2751 143.954 53.2667 144.189 48.3937C144.267 46.6646 144.346 44.9354 144.424 43.2849H137.912C137.912 44.8568 137.833 46.4288 137.755 48.0793Z" fill="url(#paint31_linear_187_2736)"/>
<path d="M155.16 2.02175V56.9607H161.595V8.46666H213.226V56.9607H219.66V2.02175H155.16Z" fill="url(#paint32_linear_187_2736)"/>
<path d="M284.588 8.46666V2.02175H232.956V56.9607H284.588V50.5158H239.391V32.753H284.588V26.3081H239.391V8.46666H284.588Z" fill="url(#paint33_linear_187_2736)"/>
<path d="M363.214 2.02175H353.405L326.883 25.2077L300.44 2.02175H290.631L322.018 29.5305L290.631 56.9607H300.44L326.883 33.7747L353.405 56.9607H363.214L331.827 29.5305L363.214 2.02175Z" fill="url(#paint34_linear_187_2736)"/>
<path fill-rule="evenodd" clip-rule="evenodd" d="M58.1443 1.02175H66.6571V32.2117L66.657 32.2206C66.5785 36.621 66.4214 43.1588 66.185 47.4237C65.9228 52.8926 61.5059 57.2275 56.1325 57.4879L56.1238 57.4884C48.1854 57.8032 40.247 57.9607 32.387 57.9607C24.4456 57.9607 18.1547 57.8031 10.2195 57.4883L10.2107 57.488C4.83595 57.2275 0.418156 52.8903 0.158063 47.4194L0.157961 47.4173L0.147829 47.1943C0.0730035 45.5488 0 43.9434 0 42.2632V41.2632H8.38565L8.43308 42.2133C8.47305 43.0139 8.49292 43.8123 8.51249 44.6062L8.51311 44.6313C8.53234 45.4115 8.55149 46.1885 8.58882 46.9823C8.65014 47.5482 8.87303 48.0264 9.24056 48.3945C9.61506 48.7696 10.0715 48.9656 10.573 48.9656H10.5983L10.6235 48.9669C18.3749 49.359 24.6354 49.5158 32.387 49.5158C40.1421 49.5158 47.9716 49.3589 55.7197 48.9669L55.745 48.9656H55.7703C56.2718 48.9656 56.7282 48.7696 57.1027 48.3945C57.47 48.0266 57.6929 47.5487 57.7544 46.9832C57.8989 43.7843 58.0436 38.1746 58.1262 33.753H10.1569L10.133 33.7518C4.67337 33.4914 0.339413 29.1484 0.0795957 23.6833L0.0784675 23.6595V1.02175H8.51279V23.2679C8.57742 23.8243 8.79929 24.295 9.16209 24.6584C9.53659 25.0335 9.99298 25.2295 10.4946 25.2295H58.1443V1.02175ZM7.51279 23.3214V2.02175H1.07847V23.6358C1.31387 28.5874 5.23724 32.5172 10.1807 32.753H59.1443C59.1388 33.0781 59.1328 33.412 59.1264 33.753C59.0435 38.194 58.8978 43.8459 58.752 47.0575C58.6735 47.8435 58.3597 48.5509 57.8104 49.1011C57.2611 49.6512 56.5549 49.9656 55.7703 49.9656C48.002 50.3586 40.1552 50.5158 32.387 50.5158C24.6187 50.5158 18.3413 50.3586 10.573 49.9656C9.78835 49.9656 9.08214 49.6512 8.53287 49.1011C7.9836 48.5509 7.66973 47.8435 7.59126 47.0575C7.55252 46.2426 7.53291 45.4468 7.51353 44.6607C7.49367 43.8547 7.47405 43.0589 7.43433 42.2632H1C1 42.5991 1.00296 42.932 1.00831 43.2632C1.02934 44.5654 1.08727 45.8396 1.14712 47.1558L1.15694 47.3719C1.39234 52.3235 5.39418 56.2533 10.2592 56.4891C18.1844 56.8035 24.4618 56.9607 32.387 56.9607C40.2337 56.9607 48.1589 56.8035 56.0841 56.4891C60.9491 56.2533 64.9509 52.3235 65.1863 47.3719C65.4217 43.1277 65.5787 36.6042 65.6571 32.2028V2.02175H59.1443V26.2295H10.4946C9.70988 26.2295 9.00368 25.9151 8.4544 25.3649C7.90513 24.8147 7.59126 24.1074 7.51279 23.3214ZM134.773 50.9874C135.558 50.9874 136.264 50.673 136.813 50.1228C137.362 49.5726 137.676 48.7867 137.755 48.0793L137.765 47.8559C137.84 46.2869 137.912 44.7856 137.912 43.2849H144.424C144.409 43.6153 144.393 43.9488 144.377 44.2849C144.315 45.6206 144.252 46.9961 144.19 48.3718L144.189 48.3937C143.954 53.2667 140.03 57.2751 135.087 57.4323C127.161 57.8253 119.236 57.9825 111.39 57.9825C103.464 57.9825 95.5391 57.8253 87.6924 57.4323C82.7489 57.2751 78.8256 53.2667 78.5902 48.3937C77.884 35.8182 77.9624 23.2428 78.5902 10.6674C78.8256 5.71579 82.7489 1.78596 87.6924 1.55017C95.5391 1.15719 103.464 1 111.39 1C119.236 1 127.161 1.15719 135.087 1.55017C140.03 1.78596 143.954 5.71579 144.189 10.6674C144.252 11.9995 144.316 13.3829 144.379 14.7761C144.394 15.109 144.409 15.4424 144.424 15.7758L137.912 15.7761C137.912 14.1256 137.833 12.5537 137.755 10.9818C137.676 10.1958 137.362 9.48842 136.813 8.93825C136.264 8.38807 135.558 8.07368 134.773 7.99509C127.005 7.6807 119.158 7.44491 111.39 7.44491C103.621 7.44491 95.6961 7.6807 87.9278 7.99509C87.2216 8.07368 86.4369 8.38807 85.8876 8.93825C85.3384 9.48842 85.0245 10.1958 85.0245 10.9818C84.3968 23.2428 84.3968 35.7396 85.0245 48.0793C85.0245 48.7867 85.3384 49.5726 85.8876 50.1228C86.4369 50.673 87.2216 50.9874 87.9278 50.9874C95.6961 51.3804 103.621 51.5375 111.39 51.5375C119.158 51.5375 127.005 51.3804 134.773 50.9874ZM88.0064 8.99272C87.492 9.05691 86.9483 9.29121 86.5953 9.64477C86.2208 10.0199 86.0245 10.4778 86.0245 10.9818V11.0073L86.0232 11.0329C85.3972 23.2598 85.3972 35.7226 86.0232 48.0285L86.0245 48.0539V48.0793C86.0245 48.519 86.2313 49.0516 86.5953 49.4163C86.9593 49.7809 87.4903 49.9874 87.9278 49.9874H87.9531L87.9783 49.9886C95.7263 50.3806 103.634 50.5375 111.39 50.5375C119.145 50.5375 126.974 50.3806 134.722 49.9886L134.748 49.9874H134.773C135.274 49.9874 135.731 49.7914 136.105 49.4163C136.459 49.0618 136.694 48.515 136.757 47.9977L136.766 47.8153C136.841 46.2396 136.912 44.7609 136.912 43.2849V42.2849H145.473L145.423 43.3324C145.345 44.9742 145.267 46.694 145.189 48.4155L145.188 48.439L145.188 48.4419C144.928 53.8162 140.604 58.2527 135.127 58.4315C127.186 58.8251 119.247 58.9825 111.39 58.9825C103.454 58.9825 95.5151 58.8251 87.6513 58.4315C82.1765 58.2525 77.8534 53.8186 77.5916 48.4465C76.8832 35.8312 76.9623 23.2211 77.5914 10.6182C77.5913 10.6188 77.5913 10.6193 77.5913 10.6199M88.0064 8.99272C95.7562 8.67937 103.653 8.44491 111.39 8.44491C119.128 8.44491 126.949 8.67948 134.7 8.99298C135.263 9.05479 135.739 9.27744 136.105 9.64477C136.473 10.0132 136.696 10.4919 136.757 11.0584C136.835 12.6244 136.912 14.1636 136.912 15.7761V16.7761H145.471L145.422 15.7099C145.344 13.988 145.266 12.265 145.188 10.6199C144.928 5.15502 140.594 0.812156 135.135 0.551348C127.191 0.157435 119.249 0 111.39 0C103.452 0 95.5099 0.157425 87.6435 0.551365C82.185 0.812326 77.852 5.15427 77.5914 10.6182M154.16 1.02175H220.66V57.9607H212.226V9.46666H162.595V57.9607H154.16V1.02175ZM161.595 56.9607H155.16V2.02175H219.66V56.9607H213.226V8.46666H161.595V56.9607ZM285.588 9.46666H240.391V25.3081H285.588V33.753H240.391V49.5158H285.588V57.9607H231.956V1.02175H285.588V9.46666ZM284.588 50.5158V56.9607H232.956V2.02175H284.588V8.46666H239.391V26.3081H284.588V32.753H239.391V50.5158H284.588ZM365.872 1.02175L333.345 29.5295L365.877 57.9607H353.03L326.884 35.1038L300.816 57.9607H287.967L320.5 29.5295L287.973 1.02175H300.816L326.884 23.8786L353.03 1.02175H365.872ZM326.883 25.2077L300.44 2.02175H290.631L322.018 29.5305L290.631 56.9607H300.44L326.883 33.7747L353.405 56.9607H363.214L331.827 29.5305L363.214 2.02175H353.405L326.883 25.2077Z" fill="url(#paint35_linear_187_2736)"/>
<path fill-rule="evenodd" clip-rule="evenodd" d="M541.864 29.0698H442.379V26.0698H541.864V29.0698Z" fill="#99CAE5"/>
<defs>
<linearGradient id="paint0_linear_187_2736" x1="427.578" y1="128.321" x2="1385.44" y2="255.565" gradientUnits="userSpaceOnUse">
<stop offset="0.129677" stop-color="white"/>
<stop offset="1" stop-color="#8AC2E1"/>
</linearGradient>
<linearGradient id="paint1_linear_187_2736" x1="427.578" y1="128.321" x2="1385.44" y2="255.565" gradientUnits="userSpaceOnUse">
<stop offset="0.129677" stop-color="white"/>
<stop offset="1" stop-color="#8AC2E1"/>
</linearGradient>
<linearGradient id="paint2_linear_187_2736" x1="427.578" y1="128.321" x2="1385.44" y2="255.565" gradientUnits="userSpaceOnUse">
<stop offset="0.129677" stop-color="white"/>
<stop offset="1" stop-color="#8AC2E1"/>
</linearGradient>
<linearGradient id="paint3_linear_187_2736" x1="427.578" y1="128.321" x2="1385.44" y2="255.565" gradientUnits="userSpaceOnUse">
<stop offset="0.129677" stop-color="white"/>
<stop offset="1" stop-color="#8AC2E1"/>
</linearGradient>
<linearGradient id="paint4_linear_187_2736" x1="427.578" y1="128.321" x2="1385.44" y2="255.565" gradientUnits="userSpaceOnUse">
<stop offset="0.129677" stop-color="white"/>
<stop offset="1" stop-color="#8AC2E1"/>
</linearGradient>
<linearGradient id="paint5_linear_187_2736" x1="427.578" y1="128.321" x2="1385.44" y2="255.565" gradientUnits="userSpaceOnUse">
<stop offset="0.129677" stop-color="white"/>
<stop offset="1" stop-color="#8AC2E1"/>
</linearGradient>
<linearGradient id="paint6_linear_187_2736" x1="427.578" y1="128.321" x2="1385.44" y2="255.565" gradientUnits="userSpaceOnUse">
<stop offset="0.129677" stop-color="white"/>
<stop offset="1" stop-color="#8AC2E1"/>
</linearGradient>
<linearGradient id="paint7_linear_187_2736" x1="427.578" y1="128.321" x2="1385.44" y2="255.565" gradientUnits="userSpaceOnUse">
<stop offset="0.129677" stop-color="white"/>
<stop offset="1" stop-color="#8AC2E1"/>
</linearGradient>
<linearGradient id="paint8_linear_187_2736" x1="427.578" y1="128.321" x2="1385.44" y2="255.565" gradientUnits="userSpaceOnUse">
<stop offset="0.129677" stop-color="white"/>
<stop offset="1" stop-color="#8AC2E1"/>
</linearGradient>
<linearGradient id="paint9_linear_187_2736" x1="427.578" y1="128.321" x2="1385.44" y2="255.565" gradientUnits="userSpaceOnUse">
<stop offset="0.129677" stop-color="white"/>
<stop offset="1" stop-color="#8AC2E1"/>
</linearGradient>
<linearGradient id="paint10_linear_187_2736" x1="427.578" y1="128.321" x2="1385.44" y2="255.565" gradientUnits="userSpaceOnUse">
<stop offset="0.129677" stop-color="white"/>
<stop offset="1" stop-color="#8AC2E1"/>
</linearGradient>
<linearGradient id="paint11_linear_187_2736" x1="427.578" y1="128.321" x2="1385.44" y2="255.565" gradientUnits="userSpaceOnUse">
<stop offset="0.129677" stop-color="white"/>
<stop offset="1" stop-color="#8AC2E1"/>
</linearGradient>
<linearGradient id="paint12_linear_187_2736" x1="427.578" y1="128.321" x2="1385.44" y2="255.565" gradientUnits="userSpaceOnUse">
<stop offset="0.129677" stop-color="white"/>
<stop offset="1" stop-color="#8AC2E1"/>
</linearGradient>
<linearGradient id="paint13_linear_187_2736" x1="427.578" y1="128.321" x2="1385.44" y2="255.565" gradientUnits="userSpaceOnUse">
<stop offset="0.129677" stop-color="white"/>
<stop offset="1" stop-color="#8AC2E1"/>
</linearGradient>
<linearGradient id="paint14_linear_187_2736" x1="427.578" y1="128.321" x2="1385.44" y2="255.565" gradientUnits="userSpaceOnUse">
<stop offset="0.129677" stop-color="white"/>
<stop offset="1" stop-color="#8AC2E1"/>
</linearGradient>
<linearGradient id="paint15_linear_187_2736" x1="427.578" y1="128.321" x2="1385.44" y2="255.565" gradientUnits="userSpaceOnUse">
<stop offset="0.129677" stop-color="white"/>
<stop offset="1" stop-color="#8AC2E1"/>
</linearGradient>
<linearGradient id="paint16_linear_187_2736" x1="427.578" y1="128.321" x2="1385.44" y2="255.565" gradientUnits="userSpaceOnUse">
<stop offset="0.129677" stop-color="white"/>
<stop offset="1" stop-color="#8AC2E1"/>
</linearGradient>
<linearGradient id="paint17_linear_187_2736" x1="427.578" y1="128.321" x2="1385.44" y2="255.565" gradientUnits="userSpaceOnUse">
<stop offset="0.129677" stop-color="white"/>
<stop offset="1" stop-color="#8AC2E1"/>
</linearGradient>
<linearGradient id="paint18_linear_187_2736" x1="427.578" y1="128.321" x2="1385.44" y2="255.565" gradientUnits="userSpaceOnUse">
<stop offset="0.129677" stop-color="white"/>
<stop offset="1" stop-color="#8AC2E1"/>
</linearGradient>
<linearGradient id="paint19_linear_187_2736" x1="427.578" y1="128.321" x2="1385.44" y2="255.565" gradientUnits="userSpaceOnUse">
<stop offset="0.129677" stop-color="white"/>
<stop offset="1" stop-color="#8AC2E1"/>
</linearGradient>
<linearGradient id="paint20_linear_187_2736" x1="427.578" y1="128.321" x2="1385.44" y2="255.565" gradientUnits="userSpaceOnUse">
<stop offset="0.129677" stop-color="white"/>
<stop offset="1" stop-color="#8AC2E1"/>
</linearGradient>
<linearGradient id="paint21_linear_187_2736" x1="427.578" y1="128.321" x2="1385.44" y2="255.565" gradientUnits="userSpaceOnUse">
<stop offset="0.129677" stop-color="white"/>
<stop offset="1" stop-color="#8AC2E1"/>
</linearGradient>
<linearGradient id="paint22_linear_187_2736" x1="427.578" y1="128.321" x2="1385.44" y2="255.565" gradientUnits="userSpaceOnUse">
<stop offset="0.129677" stop-color="white"/>
<stop offset="1" stop-color="#8AC2E1"/>
</linearGradient>
<linearGradient id="paint23_linear_187_2736" x1="427.578" y1="128.321" x2="1385.44" y2="255.565" gradientUnits="userSpaceOnUse">
<stop offset="0.129677" stop-color="white"/>
<stop offset="1" stop-color="#8AC2E1"/>
</linearGradient>
<linearGradient id="paint24_linear_187_2736" x1="427.578" y1="128.321" x2="1385.44" y2="255.565" gradientUnits="userSpaceOnUse">
<stop offset="0.129677" stop-color="white"/>
<stop offset="1" stop-color="#8AC2E1"/>
</linearGradient>
<linearGradient id="paint25_linear_187_2736" x1="427.578" y1="128.321" x2="1385.44" y2="255.565" gradientUnits="userSpaceOnUse">
<stop offset="0.129677" stop-color="white"/>
<stop offset="1" stop-color="#8AC2E1"/>
</linearGradient>
<linearGradient id="paint26_linear_187_2736" x1="427.578" y1="128.321" x2="1385.44" y2="255.565" gradientUnits="userSpaceOnUse">
<stop offset="0.129677" stop-color="white"/>
<stop offset="1" stop-color="#8AC2E1"/>
</linearGradient>
<linearGradient id="paint27_linear_187_2736" x1="427.578" y1="128.321" x2="1385.44" y2="255.565" gradientUnits="userSpaceOnUse">
<stop offset="0.129677" stop-color="white"/>
<stop offset="1" stop-color="#8AC2E1"/>
</linearGradient>
<linearGradient id="paint28_linear_187_2736" x1="427.578" y1="128.321" x2="1385.44" y2="255.565" gradientUnits="userSpaceOnUse">
<stop offset="0.129677" stop-color="white"/>
<stop offset="1" stop-color="#8AC2E1"/>
</linearGradient>
<linearGradient id="paint29_linear_187_2736" x1="427.578" y1="128.321" x2="1385.44" y2="255.565" gradientUnits="userSpaceOnUse">
<stop offset="0.129677" stop-color="white"/>
<stop offset="1" stop-color="#8AC2E1"/>
</linearGradient>
<linearGradient id="paint30_linear_187_2736" x1="35.7255" y1="29.1394" x2="363.832" y2="45.8049" gradientUnits="userSpaceOnUse">
<stop offset="0.129677" stop-color="white"/>
<stop offset="1" stop-color="#8AC2E1"/>
</linearGradient>
<linearGradient id="paint31_linear_187_2736" x1="35.7255" y1="29.1394" x2="363.832" y2="45.8049" gradientUnits="userSpaceOnUse">
<stop offset="0.129677" stop-color="white"/>
<stop offset="1" stop-color="#8AC2E1"/>
</linearGradient>
<linearGradient id="paint32_linear_187_2736" x1="35.7255" y1="29.1394" x2="363.832" y2="45.8049" gradientUnits="userSpaceOnUse">
<stop offset="0.129677" stop-color="white"/>
<stop offset="1" stop-color="#8AC2E1"/>
</linearGradient>
<linearGradient id="paint33_linear_187_2736" x1="35.7255" y1="29.1394" x2="363.832" y2="45.8049" gradientUnits="userSpaceOnUse">
<stop offset="0.129677" stop-color="white"/>
<stop offset="1" stop-color="#8AC2E1"/>
</linearGradient>
<linearGradient id="paint34_linear_187_2736" x1="35.7255" y1="29.1394" x2="363.832" y2="45.8049" gradientUnits="userSpaceOnUse">
<stop offset="0.129677" stop-color="white"/>
<stop offset="1" stop-color="#8AC2E1"/>
</linearGradient>
<linearGradient id="paint35_linear_187_2736" x1="35.0767" y1="29.1271" x2="366.543" y2="45.5568" gradientUnits="userSpaceOnUse">
<stop offset="0.129677" stop-color="white"/>
<stop offset="1" stop-color="#8AC2E1"/>
</linearGradient>
</defs>
</svg>
