<svg width="173" height="57" viewBox="0 0 173 57" fill="none" xmlns="http://www.w3.org/2000/svg">
<path d="M16.6461 50.792C17.6482 51.6847 22.6323 55.704 31.2703 55.7811C31.6642 52.3236 34.1628 43.9905 41.9256 41.3124L42.2669 41.1946L42.5207 41.4574C43.5885 42.5631 45.5138 46.0069 45.702 49.5187C50.9181 46.1293 56.0597 35.9835 55.5521 25.6702C55.167 17.8581 51.5263 7.33627 36.4208 1.40472L30.9334 7.18674L26.8901 4.92106C26.8507 4.88934 26.1462 4.37276 25.5292 3.69759C25.1529 4.49058 24.654 5.25638 23.8795 6.4436C23.6563 6.78345 23.4113 7.15955 23.1399 7.58097C22.0591 9.2621 22.7767 11.9175 24.7765 13.6258L25.1572 13.9521L24.9078 14.3961C23.8882 16.2177 23.9232 19.4124 25.9974 21.7415L26.2249 21.9952L26.1287 22.326C25.4373 24.6778 25.0216 26.0961 23.0568 28.0265L22.8555 28.2259L22.5798 28.1896C20.7988 27.9494 19.0354 27.3286 17.9677 26.7396C17.7401 28.1171 17.7751 30.564 18.9216 33.6136L19.2848 34.5879L18.2871 34.4338C11.7539 33.4097 5.85521 29.549 1.15113 23.2323C1.10737 28.5023 3.31719 41.0043 16.2654 46.5688L16.6068 46.7138L16.6243 47.099C16.6986 48.8118 16.6593 50.212 16.6374 50.7966L16.6461 50.792ZM31.5198 56.9955C21.1839 56.9955 15.8629 51.7074 15.6441 51.4853L15.4559 51.295L15.4734 51.0186C15.4734 51.0186 15.5565 49.5051 15.4865 47.534C0.56914 40.891 -0.441688 25.2986 0.109673 21.456L0.324091 19.9697L1.16426 21.1977C5.59703 27.6912 11.2288 31.7739 17.4994 33.0563C16.4405 29.7076 16.5761 26.9707 17.0575 25.5705L17.3419 24.7458L17.9852 25.3167C18.5234 25.7925 20.3919 26.6218 22.4617 26.948C23.9495 25.4209 24.3521 24.2473 24.9253 22.2988C22.8468 19.7522 22.7242 16.4035 23.6826 14.2375C21.4684 12.1033 20.812 9.02647 22.1729 6.91033C22.4442 6.48438 22.6936 6.10828 22.9168 5.76389C23.9757 4.14166 24.4571 3.40305 24.8334 2.30646L25.2579 1.083L25.888 2.20677C26.2643 2.87741 27.1833 3.64321 27.5421 3.91057L30.7234 5.69139L36.1276 0L36.482 0.135941C48.9664 4.92106 56.156 13.9702 56.7249 25.6113C57.2893 37.1164 51.3163 48.0777 45.3826 51.0911L44.4899 51.5442L44.5468 50.5156C44.7174 47.3029 42.9189 43.8409 41.9387 42.5948C33.3401 45.8393 32.3949 56.3203 32.3906 56.4245L32.3599 56.9909L31.5241 57" fill="white"/>
<path d="M0.68735 21.5468C0.267265 24.4695 0.591079 40.4788 16.0511 47.1218C16.1473 49.3376 16.0511 51.0505 16.0511 51.0505C16.0511 51.0505 21.3984 56.4881 31.8043 56.3884C31.9005 54.5759 33.6509 44.8063 42.1138 41.8881C43.1816 42.9937 45.5883 47.4027 45.0894 51.2499C57.3857 45.4905 67.3233 11.5053 36.7403 0.253906L30.8328 6.44828L27.2358 4.43635C27.2358 4.43635 25.9231 3.4757 25.3892 2.52412C24.9035 3.93337 24.2427 4.80792 22.6674 7.25486C21.4028 9.21694 22.1817 12.1895 24.4178 14.1017C23.35 16.014 23.2494 19.5394 25.5861 22.1585C24.9035 24.474 24.5184 25.7836 22.6674 27.5961C20.4313 27.2925 18.2915 26.3863 17.6089 25.7836C17.1232 27.1929 17.0269 30.2153 18.3878 33.8404C15.1803 33.3374 7.49622 31.5248 0.691726 21.5558" fill="#231F20"/>
<path d="M45.8509 50.851C45.8509 50.2937 45.7065 49.2288 45.6409 48.7757C45.4614 47.7244 45.4177 46.5417 44.0043 43.5873C43.501 42.604 42.3896 41.1403 42.2889 41.1539C40.8493 41.5481 38.4513 42.9574 37.0641 44.0812C35.6113 45.2593 34.2154 47.1308 33.1083 49.0022C32.9377 49.2922 32.7583 49.5913 32.5832 49.9085C31.8918 51.4945 31.4499 53.1983 31.2792 54.9157C31.2311 55.1558 31.3405 55.3326 31.1261 55.3688C27.761 55.9579 24.4003 54.8024 21.2891 53.5608C20.4183 53.2119 19.3155 52.7905 18.4185 52.1742C17.5477 51.635 16.7732 50.7649 16.6506 49.7091C16.5806 48.6035 16.5106 47.4797 16.6681 46.3831C15.1716 45.6218 13.5788 44.9739 12.266 43.8999C11.5659 43.329 10.8657 42.7263 10.1918 42.0919C9.27289 41.3125 8.39334 40.4652 7.57942 39.5C5.66279 37.2116 4.1181 34.7149 3.14228 31.9145C2.79221 31.126 2.48589 30.3194 2.25835 29.4811C2.11832 29.028 1.94766 28.5749 1.85139 28.1127C1.58009 27.0886 1.46194 26.3771 1.38755 25.489C1.36567 25.2579 1.36129 25.0223 1.36129 24.7912C1.36129 24.6144 1.35254 24.0435 1.53633 23.9438C1.67198 23.8668 1.89515 24.2157 1.98704 24.3471C4.38503 27.6233 7.64944 30.0521 11.0933 32.0323C12.3579 32.7573 13.9682 33.6772 15.6354 34.2617C15.9155 34.3388 16.1999 34.4067 16.4887 34.4611C17.4733 34.6424 18.4535 34.7103 19.4293 34.7013C18.2084 32.49 17.9503 29.8799 18.0028 27.374C18.0028 27.2019 18.1253 27.1112 18.2522 27.0931C19.4293 28.0266 21.1665 28.4027 22.5843 28.4344C22.6106 28.4344 22.72 28.4072 22.7419 28.3936C24.3609 27.3559 26.2644 24.1296 26.2907 21.9138C25.9012 21.4878 25.8269 21.157 25.4943 20.6042C25.2974 20.21 25.0873 19.8248 24.8948 19.417C24.5272 18.6376 24.2122 17.7268 24.3784 16.8477C24.4441 15.7919 24.8379 14.7587 25.2886 13.6576C23.8271 12.8238 22.4881 11.1382 22.6675 9.32563C22.6981 9.00391 22.6893 8.59608 22.79 8.31967C23.2276 6.86057 24.3434 5.83195 25.1005 4.64474C25.153 4.4952 25.5074 3.56174 25.7175 3.82909C26.2732 4.52239 26.969 5.01178 27.6954 5.46038C28.3474 5.76398 29.0081 6.05399 29.5989 6.47994C29.9489 6.72916 30.2115 7.1687 30.6141 7.33183C31.056 7.51309 31.323 7.1823 31.638 6.88776C32.7451 5.84555 33.6334 4.57677 34.688 3.47565C34.9768 3.17204 37.3398 0.421508 37.5542 0.557448C37.3442 0.426039 37.0466 0.385257 36.7491 0.271973L30.8416 6.46634L27.2446 4.45442C27.2446 4.45442 25.9319 3.49377 25.398 2.54219C24.9123 3.95144 24.2515 4.82599 22.6762 7.27293C21.4116 9.23501 22.1905 12.2076 24.4266 14.1198C23.372 16.0094 23.267 19.4668 25.5118 22.0724C24.781 24.7277 24.4878 25.8379 22.6762 27.6142C20.4401 27.3106 18.3003 26.4043 17.6177 25.8017C17.132 27.2109 17.0357 30.2333 18.3966 33.8584C15.1891 33.3554 7.50503 31.5429 0.700534 21.5739C0.280449 24.4966 0.604263 40.5059 16.0643 47.1489C16.1605 49.3647 16.0643 51.0776 16.0643 51.0776C16.0643 51.0776 21.4116 56.5152 31.8174 56.4155C31.9137 54.603 33.6641 44.8334 42.127 41.9152C43.1947 43.0208 45.5796 47.5794 45.1026 51.277C45.3433 51.1546 45.6234 51.0323 45.864 50.8828" fill="#4E9DD9"/>
<path d="M27.8485 6.83304C27.7523 6.78319 27.6735 6.73788 27.6254 6.71069C27.5991 6.69256 27.5729 6.68803 27.5466 6.67897C27.4241 6.611 27.3147 6.54303 27.2228 6.47053C26.597 5.99927 26.0632 5.50082 25.6431 4.87549C25.6256 4.90268 24.7067 6.79679 23.8271 7.66681C23.7746 7.77103 23.7221 7.87525 23.6783 7.97947C22.8382 10.0095 24.1203 11.7949 25.8006 12.751C25.875 12.7918 26.0107 12.973 26.0194 12.9594C26.4964 12.2843 27.1178 11.6589 27.2359 10.798C27.3541 9.94608 26.9559 9.19388 26.5839 8.46433C26.5314 8.35557 25.9669 7.00523 26.0894 6.96445C26.1551 6.94632 28.0236 9.44763 29.2795 9.31169C29.5726 9.03528 29.9533 8.63652 30.2422 8.35557C30.0409 7.99307 28.1461 6.9871 27.8398 6.83304" fill="#4E9DD9"/>
<path d="M34.0401 29.676C34.097 29.599 34.8409 28.8966 35.2216 28.7335C35.8823 28.448 35.9174 28.9057 35.6329 29.1594C35.0641 29.676 34.7009 30.3149 34.4908 31.0128C34.5171 31.3164 34.4689 31.7695 34.5039 32.0686C35.3091 31.8148 36.123 32.0867 36.3112 32.9567C36.3681 33.1017 36.4468 33.7044 36.3024 34.0306C36.3812 34.4022 35.7905 34.9868 35.3529 34.9868L34.6221 34.9596C34.6702 35.4625 34.6177 35.9429 34.5958 36.1921C34.5696 36.5455 34.6571 36.7585 34.4602 37.0485C33.9395 37.8143 32.8192 37.692 31.8128 37.5651C30.7976 37.2751 30.0274 36.9398 30.023 36.7223C29.988 35.1635 30.0712 32.064 30.2681 31.561C30.4606 31.3073 30.8982 31.3073 30.8982 31.7378C30.8982 31.9734 30.8545 32.2045 30.837 32.4356C30.8807 33.5503 30.8282 34.9732 31.2133 35.5894C31.7428 35.7118 33.0161 35.8522 33.4756 35.5396C33.4187 33.4234 33.2874 30.546 34.0357 29.676H34.0401ZM36.8757 14.5367C37.0857 14.4506 37.3439 14.3827 37.462 14.3011C38.114 13.8797 37.7815 13.1093 37.7815 12.4568C37.8296 11.5641 37.8209 11.111 38.1622 10.2908C38.2628 10.0507 38.5298 10.1232 38.6479 10.2908C39.1949 10.7938 38.5429 11.9402 38.5866 12.6834C38.6217 13.2679 39.5362 13.5126 40.582 13.0595C40.9978 12.8782 41.4922 12.3979 41.9692 12.4795C42.4068 12.5565 42.0217 13.2679 41.7504 13.5081C41.2165 13.9884 40.512 13.9839 39.8469 14.0564C39.0592 14.1425 38.5954 14.4914 37.9171 14.872C37.5189 15.0941 37.3701 15.5019 36.9019 15.2119C36.3374 14.8584 36.5519 14.6727 36.8757 14.5367ZM38.9498 1.13295C37.077 2.95909 34.7052 5.21571 32.8017 7.00106C31.9834 7.97531 31.0908 9.00846 30.0493 9.69722C29.3535 10.4132 28.6753 11.1473 28.0233 11.9085C27.9007 12.0581 27.7738 12.2031 27.6469 12.3481C26.7192 13.4537 25.6559 14.8222 25.6165 16.3357C25.5815 17.6724 26.0804 18.5923 26.6317 19.7387C27.0212 20.5498 27.1875 21.1706 27.4806 21.8503C27.4369 22.6886 27.2487 23.7762 26.9074 24.6643C26.3779 26.0509 25.5203 27.442 24.2206 28.8286C23.7611 29.3543 23.5117 29.4358 22.9954 29.4404C22.7897 29.4404 22.0502 29.4222 21.8664 29.4086C21.3019 29.3633 20.6543 29.309 20.0416 29.1504C20.0504 31.7151 22.1858 33.6998 23.748 35.4625C23.5117 35.7752 21.5951 36.2782 17.5605 35.6846C15.4864 35.3764 13.666 34.5472 11.8062 33.5775C10.2747 32.7754 8.70811 31.9054 7.22469 30.9085C5.82878 30.0566 4.52477 29.0643 3.46143 27.8272C3.89464 31.919 6.8046 35.6529 9.59204 38.3717C12.4189 41.1313 15.6614 43.1704 19.4159 43.9362C20.9868 44.0449 22.4834 43.4559 23.6999 42.1826C23.8793 41.9922 24.1944 42.1327 24.1987 42.3955C24.2031 43.1251 24.12 43.909 23.9799 44.5343C23.6824 45.6083 23.608 46.3378 22.304 46.6505C21.8664 46.7547 21.175 46.8635 20.7243 46.9042C20.0854 47.0221 18.4007 47.1217 18.3657 47.1308C18.1075 47.8649 18.4182 48.8029 18.5845 49.0929C18.847 49.5007 19.1927 50.0354 19.7747 50.3254C20.313 50.5746 20.8949 50.8057 21.6213 50.8556C22.1289 50.8918 23.3236 50.9326 23.8355 50.7559C24.0281 49.1201 24.8507 46.9314 27.0431 46.9314C27.8438 46.9314 27.787 48.0461 27.4806 48.0643C26.6098 48.1141 26.3736 48.753 26.3298 49.5143C26.2992 50.3843 27.345 52.0156 28.5615 52.65C28.8853 52.8177 29.2047 52.9808 29.5286 53.0624C29.9443 50.262 33.7513 45.8258 33.7557 45.8212C35.0072 44.2579 36.705 42.8396 38.4204 41.7929C38.4991 41.734 39.5537 41.0724 40.0482 40.8186C40.6827 40.5014 41.8204 40.225 42.7962 39.4773C42.9188 38.7659 42.6518 38.0182 42.8706 36.2419C43.0063 35.1318 43.3082 34.1258 43.8289 33.0564C44.6472 31.3753 46.1175 29.2954 46.1175 27.7819C45.6843 26.7623 45.0279 25.9376 44.586 25.3259C43.632 24.1613 42.5424 23.2007 41.5972 22.1403C40.6608 21.0891 39.8294 19.9018 39.6018 18.4563C39.5362 18.0531 39.5493 17.6452 39.685 17.2555C39.9607 16.4671 40.5645 15.8463 41.3303 15.5653C42.1092 15.2799 43.0807 15.4838 43.667 14.7452C45.238 12.7604 43.8815 9.95551 43.969 7.67624C42.8094 7.85749 41.4047 7.67624 40.1007 7.63545C38.8711 7.4542 37.6415 7.46779 36.6525 8.25625C35.948 8.81814 35.7117 9.76519 35.6154 10.6352C35.4841 11.8496 35.913 14.0292 33.9132 14.07C33.4669 14.0791 33.0424 13.9612 32.6092 13.8706C32.6354 13.7981 32.6923 13.7347 32.7973 13.712C33.2743 13.6123 34.2545 13.5625 34.5958 13.132C34.9809 12.6426 34.8234 11.7862 34.8453 11.2062C34.889 10.0552 35.1647 8.80001 35.9436 7.92546C37.6064 6.0676 40.0701 6.3712 42.2755 6.57512C42.9713 6.63855 43.6583 6.6159 44.3584 6.62043C44.5203 6.62043 44.9054 6.54793 45.1155 6.61137C45.0805 6.90137 45.1417 7.70342 45.1723 7.87108C45.5443 10.7983 46.5639 14.3509 44.4722 15.9596C44.1834 16.0955 43.8771 16.1907 43.5445 16.2496C42.6212 16.4036 41.6498 16.3493 41.0371 17.2012C40.7439 17.609 40.8927 18.2298 40.9934 18.6784C41.094 19.1225 41.3172 19.5167 41.6016 19.8747C42.6037 21.6419 44.9492 23.0965 45.9819 24.2791C46.6689 25.0676 47.8635 26.5494 48.0079 27.5508C48.0473 27.8317 47.6185 28.4752 47.5134 28.738C47.159 29.6488 46.7039 30.5007 46.2532 31.3662C45.6843 32.4673 44.9098 34.1802 46.5858 35.0638C47.3253 35.4535 48.9006 35.2224 49.7933 34.9868C49.7933 34.0034 49.8677 33.5141 49.9158 32.4175C49.9902 30.7363 50.1258 28.8966 50.0865 27.2155C50.0646 27.1656 50.791 27.1656 50.8041 27.2789C51.1848 30.1201 51.8893 32.9023 51.8456 35.7843C53.4428 34.6696 55.5082 32.7301 56.7553 31.2121C57.9412 21.0392 55.1931 8.3786 38.9542 1.12842" fill="#4E9DD9"/>
<path d="M33.7033 35.5442C33.6464 33.4281 33.5064 30.7274 34.2503 29.8528C34.4472 29.6172 34.7229 29.2003 35.6462 28.6611C35.0248 28.4617 33.9746 29.2003 33.7208 29.5311C33.4539 29.88 33.3883 30.3377 33.3139 30.7772C33.1913 31.4796 33.1476 32.1865 33.0776 32.8979C32.9988 33.6682 32.7056 35.159 32.1455 35.7209C32.5262 35.8659 33.2482 35.8569 33.7033 35.5442Z" fill="#2C5E9D"/>
<path d="M24.0413 40.8002C22.9779 40.7594 21.9759 41.1763 20.9169 41.208C17.6919 41.3031 14.83 39.7897 12.0732 38.2173C12.3095 39.2187 12.7121 40.6688 13.7886 41.6702C15.4164 42.8846 17.298 43.9268 19.4204 43.9268C20.8688 43.9268 22.7241 43.4238 23.7043 42.3997C23.8838 42.2094 24.1988 42.3499 24.2032 42.6127C24.2032 42.6172 24.2032 42.6263 24.2032 42.6308C24.387 42.0146 24.4351 41.2216 24.05 40.7956" fill="#2C5E9D"/>
<path d="M44.5815 25.3214C43.6275 24.1568 42.516 23.2188 41.5927 22.1358C40.9188 21.3474 40.2756 20.5952 39.7724 19.1905C39.6455 18.8415 39.6236 17.4776 39.7286 17.1196C38.2233 19.0953 40.5513 23.7082 41.1683 25.5706C41.8903 27.7547 43.0105 29.821 41.689 31.9417C41.4833 32.2725 40.5119 33.4099 40.315 33.7407C39.8993 34.434 39.7724 35.0729 38.8403 34.8735C38.429 34.7874 37.987 34.5472 37.812 34.1349C37.5494 33.5096 37.6151 32.8163 37.2912 32.2C37.1031 31.8375 36.823 31.5339 36.4861 31.3164C36.2717 31.1804 35.3308 30.9086 35.4271 30.5551C35.4709 30.3965 35.8078 28.8966 35.7947 28.8876C35.2915 29.386 34.692 30.3603 34.4907 31.0083C34.5169 31.3119 34.4688 31.765 34.5038 32.0641C35.309 31.8103 36.1229 32.0822 36.311 32.9522C36.3679 33.0972 36.4467 33.6999 36.3023 34.0261C36.3811 34.3977 35.7903 34.9823 35.3527 34.9823L34.622 34.9551C34.6701 35.458 34.6176 35.9384 34.5957 36.1876C34.5694 36.541 34.657 36.754 34.46 37.044C33.9393 37.8098 32.9022 37.5244 31.8958 37.3975C30.8806 37.1075 30.4255 37.1981 30.1717 36.6679C29.8697 36.0381 30.2679 35.0774 30.0492 34.0488C29.5984 35.8568 29.244 37.7192 29.3621 39.5544C29.4365 40.7371 29.5678 44.4845 29.5634 45.1008C29.5634 45.2775 29.4322 45.3863 29.2702 45.4044C28.4651 45.4814 27.673 45.5856 26.8854 45.7624C24.9337 46.6596 23.4547 48.4948 23.0215 50.8601C23.214 50.9689 23.6385 50.8058 23.8266 50.7423C24.0192 49.1065 24.8419 46.9179 27.0342 46.9179C27.835 46.9179 27.7781 48.0326 27.4718 48.0507C26.601 48.1005 26.3647 48.7395 26.3209 49.5007C26.2903 50.3708 27.3361 52.0021 28.5526 52.6364C28.8764 52.8041 29.1959 52.9672 29.5197 53.0488C29.9354 50.2484 33.7424 45.8122 33.7468 45.8077C34.6788 44.6431 36.9981 42.604 39.396 41.2491C40.013 40.9002 41.8772 40.506 43.5531 39.8535C43.1505 38.6844 42.7261 37.4564 42.9449 35.6801C43.0805 34.5699 43.2993 34.1122 43.8201 33.0428C44.6383 31.3617 46.3624 29.3226 46.3624 27.8091C45.9292 26.7896 45.0191 25.9241 44.5771 25.3123" fill="#2C5E9D"/>
<path d="M22.0811 31.1758C22.3086 31.7105 23.3326 33.0563 23.6345 33.5457C23.792 33.7994 23.8927 33.9354 24.2077 34.307C24.4834 34.5562 24.781 34.7827 25.1004 34.964C26.0806 35.5214 26.4001 34.7193 26.6276 33.8085C26.7895 33.0291 26.9252 32.4038 26.8814 31.8645C25.5555 32.2542 23.3326 31.6697 22.0811 31.1758Z" fill="#2C5E9D"/>
<path d="M35.7909 33.8085H34.6226V32.5986H35.7909V33.8085Z" fill="#4E9DD9"/>
<path d="M31.2095 29.3995C30.8244 30.6456 31.0038 32.6847 31.8177 33.0246C32.8635 32.6077 32.089 30.7634 32.5266 29.549C32.9117 28.4751 33.1305 28.0944 34.0319 27.0205C32.7585 27.2108 31.5333 28.3482 31.2095 29.3995Z" fill="white"/>
<path d="M21.6086 32.159C21.276 31.3389 21.0878 30.6501 22.2781 30.4099C27.6254 29.3269 30.2072 24.0343 27.9011 20.3322C26.8465 18.642 26.2383 16.9337 27.6167 15.0849C29.9228 11.9945 32.6752 9.44333 35.3664 6.89217C36.6791 5.64605 39.239 2.9952 41.0506 2.10706C40.6655 1.91674 39.7072 1.40469 38.959 1.13281C37.0861 2.95895 34.7143 5.21557 32.8108 7.00093C31.0867 8.62315 28.6844 11.1471 28.028 11.9084C27.9055 12.0579 27.7786 12.2029 27.6517 12.3479C26.724 13.4536 25.6606 14.8221 25.6213 16.3355C25.5863 17.6723 26.0851 18.5921 26.6365 19.7386C27.0259 20.5497 27.1922 21.1705 27.4854 21.8502C27.4416 22.6885 27.2535 23.776 26.9121 24.6642C26.3827 26.0508 25.525 27.4419 24.2254 28.8285C23.7659 29.3541 23.5165 29.4357 23.0001 29.4402C22.7944 29.4402 22.0549 29.4221 21.8711 29.4085C21.3066 29.3632 20.659 29.3088 20.0464 29.1502C20.0551 31.5564 21.206 33.9399 23.7528 35.4624C23.5865 35.2948 21.9061 32.8795 21.613 32.1636" fill="white"/>
<path d="M17.5561 35.6753C15.482 35.3671 13.6616 34.5379 11.8018 33.5682C10.2703 32.7661 8.70372 31.8961 7.22029 30.8992C5.82438 30.0473 4.52037 29.0549 3.45703 27.8179C3.89024 31.9097 5.84626 35.1224 8.62057 37.8594C9.32947 38.5572 11.7493 40.329 11.7581 40.3154C10.7998 39.2188 7.60099 35.6299 7.34719 35.2538C6.90085 34.5923 5.96004 33.0244 5.67123 31.5155C6.26635 31.8236 8.57244 33.0244 9.75393 33.7041C16.681 37.7053 23.0654 36.3096 23.7436 35.4532C22.7722 35.7432 21.1969 36.2145 17.5561 35.6753Z" fill="white"/>
<path d="M44.3281 13.2543C44.8007 11.4734 44.3412 10.5083 44.2887 9.69262C44.2799 9.52496 43.8642 7.68976 43.9605 7.67616C42.9409 7.83476 41.9476 7.60819 40.788 7.54929C39.7378 7.62632 38.018 7.09162 36.644 8.25618C35.5019 9.20323 35.4056 11.6003 35.1475 13.5171C35.8476 12.2619 35.5807 10.0325 36.9985 8.92682C38.8407 7.49038 41.6894 8.41024 43.3435 8.25618C43.8555 9.1262 44.2931 10.8255 44.3281 13.2543Z" fill="white"/>
<path d="M35.6465 33.7042H34.627V32.6484H35.6465V33.7042Z" fill="white"/>
<path d="M27.122 6.18969C26.5663 5.72749 25.8924 5.26529 25.6036 4.58105C25.5467 5.08404 25.3498 5.39217 25.1223 5.79999C24.6322 6.68361 23.757 7.36784 23.4113 8.32849C23.2538 8.7635 23.1881 9.29367 23.2188 9.76493C23.2669 10.49 23.7176 11.1243 24.2602 11.4687C23.757 10.3676 23.8051 9.26195 24.2427 8.45537C24.5578 7.80285 25.3498 6.98721 25.7743 6.14891C25.7174 6.26219 26.7938 6.93283 26.9208 6.98268C27.3583 7.16393 28.0979 7.33159 28.973 7.45847C28.1547 6.96908 27.5728 6.56126 27.122 6.18516" fill="white"/>
<path d="M67 22.2331V23.7034H72.0155V34.7669H73.466V23.7034H78.499V22.2331H67Z" fill="url(#paint0_linear_255_6477)"/>
<path d="M91.8409 23.7034V22.2331H80.3419V34.7669H91.8409V33.2965H81.7749V29.2441H91.8409V27.7738H81.7749V23.7034H91.8409Z" fill="url(#paint1_linear_255_6477)"/>
<path d="M109.352 22.2331H107.167L101.261 27.5228L95.3712 22.2331H93.1868L100.177 28.509L93.1868 34.7669H95.3712L101.261 29.4772L107.167 34.7669H109.352L102.362 28.509L109.352 22.2331Z" fill="url(#paint2_linear_255_6477)"/>
<path d="M123.492 27.0028H112.587V23.7034H124.611V22.2331H111.154V34.7669H123.51C124.593 34.7131 125.467 33.8166 125.519 32.6869V29.0828C125.467 27.9531 124.593 27.0566 123.492 27.0028ZM124.086 32.6331C124.086 32.7945 124.016 32.9738 123.894 33.0993C123.772 33.2248 123.597 33.2965 123.44 33.2965H112.587V28.509L123.422 28.491C123.597 28.491 123.772 28.5628 123.894 28.6883C124.016 28.8138 124.086 28.9752 124.086 29.1545V32.6331Z" fill="url(#paint3_linear_255_6477)"/>
<path d="M135.708 22.2331H132.527L126.935 34.7669H128.508L129.714 32.0772H138.521L139.727 34.7669H141.3L135.708 22.2331ZM130.378 30.589L133.453 23.7034H134.782L137.857 30.589H130.378Z" fill="url(#paint4_linear_255_6477)"/>
<path d="M157.143 26.411V24.2055C157.091 23.0759 156.217 22.1793 155.116 22.1255C153.351 22.0359 151.656 22 149.908 22C148.143 22 146.378 22.0359 144.613 22.1255C143.53 22.1793 142.638 23.0759 142.586 24.2055C142.569 24.5821 142.551 24.9766 142.551 25.371H143.984C144.002 24.9945 144.002 24.6359 144.037 24.2772C144.037 24.0979 144.106 23.9366 144.229 23.811C144.351 23.6855 144.508 23.6138 144.683 23.5959C146.413 23.5241 148.178 23.4703 149.908 23.4703C151.638 23.4703 153.316 23.5241 155.046 23.5959C155.221 23.6138 155.396 23.6855 155.518 23.811C155.64 23.9366 155.71 24.0979 155.71 24.2772V26.3393C155.71 26.5186 155.623 26.68 155.501 26.8055C155.378 26.931 155.221 27.0028 155.046 27.0028H147.252V28.509L155.046 28.491C155.221 28.491 155.396 28.5628 155.518 28.6883C155.64 28.8138 155.71 28.9752 155.71 29.1545V32.7407C155.71 32.9021 155.64 33.0814 155.518 33.2069C155.396 33.3324 155.221 33.4041 155.046 33.4041C153.316 33.4938 151.638 33.5297 149.908 33.5297C148.178 33.5297 146.413 33.4938 144.683 33.4041C144.508 33.4041 144.351 33.3324 144.229 33.2069C144.106 33.0814 144.037 32.9021 144.037 32.7407C144.002 32.3641 144.002 32.0055 143.984 31.6469H142.551C142.551 32.0234 142.569 32.4179 142.586 32.8124C142.638 33.9241 143.53 34.8386 144.613 34.8745C146.378 34.9641 148.143 35 149.908 35C151.656 35 153.351 34.9641 155.116 34.8745C156.217 34.8386 157.091 33.9241 157.143 32.8124V29.0828C157.126 28.5628 156.934 28.0966 156.619 27.7379C156.934 27.3793 157.126 26.9131 157.143 26.411Z" fill="url(#paint5_linear_255_6477)"/>
<path d="M167.408 22.2331H164.227L158.635 34.7669H160.208L161.414 32.0772H170.221L171.427 34.7669H173L167.408 22.2331ZM162.078 30.589L165.153 23.7034H166.482L169.557 30.589H162.078Z" fill="url(#paint6_linear_255_6477)"/>
<defs>
<linearGradient id="paint0_linear_255_6477" x1="77.1622" y1="28.4197" x2="173.022" y2="34.6654" gradientUnits="userSpaceOnUse">
<stop offset="0.129677" stop-color="white"/>
<stop offset="1" stop-color="#8AC2E1"/>
</linearGradient>
<linearGradient id="paint1_linear_255_6477" x1="77.1622" y1="28.4197" x2="173.022" y2="34.6654" gradientUnits="userSpaceOnUse">
<stop offset="0.129677" stop-color="white"/>
<stop offset="1" stop-color="#8AC2E1"/>
</linearGradient>
<linearGradient id="paint2_linear_255_6477" x1="77.1622" y1="28.4197" x2="173.022" y2="34.6654" gradientUnits="userSpaceOnUse">
<stop offset="0.129677" stop-color="white"/>
<stop offset="1" stop-color="#8AC2E1"/>
</linearGradient>
<linearGradient id="paint3_linear_255_6477" x1="77.1622" y1="28.4197" x2="173.022" y2="34.6654" gradientUnits="userSpaceOnUse">
<stop offset="0.129677" stop-color="white"/>
<stop offset="1" stop-color="#8AC2E1"/>
</linearGradient>
<linearGradient id="paint4_linear_255_6477" x1="77.1622" y1="28.4197" x2="173.022" y2="34.6654" gradientUnits="userSpaceOnUse">
<stop offset="0.129677" stop-color="white"/>
<stop offset="1" stop-color="#8AC2E1"/>
</linearGradient>
<linearGradient id="paint5_linear_255_6477" x1="77.1622" y1="28.4197" x2="173.022" y2="34.6654" gradientUnits="userSpaceOnUse">
<stop offset="0.129677" stop-color="white"/>
<stop offset="1" stop-color="#8AC2E1"/>
</linearGradient>
<linearGradient id="paint6_linear_255_6477" x1="77.1622" y1="28.4197" x2="173.022" y2="34.6654" gradientUnits="userSpaceOnUse">
<stop offset="0.129677" stop-color="white"/>
<stop offset="1" stop-color="#8AC2E1"/>
</linearGradient>
</defs>
</svg>
