<svg width="609" height="76" viewBox="0 0 609 76" fill="none" xmlns="http://www.w3.org/2000/svg">
<mask id="path-1-outside-1_187_2723" maskUnits="userSpaceOnUse" x="0" y="0" width="609" height="76" fill="black">
<rect fill="white" width="609" height="76"/>
<path d="M2 3.29103V11.4345H30.5317V72.709H38.783V11.4345H67.4141V3.29103H2Z"/>
<path d="M143.312 11.4345V3.29103H77.8976V72.709H143.312V64.5655H86.0495V42.1214H143.312V33.9779H86.0495V11.4345H143.312Z"/>
<path d="M242.926 3.29103H230.499L196.897 32.5876L163.395 3.29103H150.968L190.734 38.0497L150.968 72.709H163.395L196.897 43.4124L230.499 72.709H242.926L203.16 38.0497L242.926 3.29103Z"/>
<path d="M323.366 29.7076H261.332V11.4345H329.729V3.29103H253.18V72.709H323.465C329.629 72.411 334.6 67.4455 334.898 61.189V41.2276C334.6 34.971 329.629 30.0055 323.366 29.7076ZM326.746 60.891C326.746 61.7848 326.348 62.7779 325.653 63.4731C324.957 64.1683 323.963 64.5655 323.068 64.5655H261.332V38.0497L322.968 37.9503C323.963 37.9503 324.957 38.3476 325.653 39.0428C326.348 39.7379 326.746 40.6317 326.746 41.6248V60.891Z"/>
<path d="M392.857 3.29103H374.764L342.951 72.709H351.898L358.758 57.8124H408.863L415.722 72.709H424.669L392.857 3.29103ZM362.536 49.5697L380.033 11.4345H387.588L405.085 49.5697H362.536Z"/>
<path d="M514.796 26.4303V14.2152C514.498 7.95862 509.527 2.9931 503.264 2.69517C493.223 2.19862 483.58 2 473.639 2C463.598 2 453.557 2.19862 443.517 2.69517C437.353 2.9931 432.283 7.95862 431.985 14.2152C431.885 16.3007 431.786 18.4855 431.786 20.6703H439.938C440.037 18.5848 440.037 16.5986 440.236 14.6124C440.236 13.6193 440.634 12.7255 441.33 12.0303C442.025 11.3352 442.92 10.9379 443.914 10.8386C453.756 10.4414 463.797 10.1434 473.639 10.1434C483.481 10.1434 493.025 10.4414 502.867 10.8386C503.861 10.9379 504.855 11.3352 505.551 12.0303C506.247 12.7255 506.644 13.6193 506.644 14.6124V26.0331C506.644 27.0262 506.147 27.92 505.451 28.6152C504.755 29.3103 503.861 29.7076 502.867 29.7076H458.528V38.0497L502.867 37.9503C503.861 37.9503 504.855 38.3476 505.551 39.0428C506.247 39.7379 506.644 40.6317 506.644 41.6248V61.4869C506.644 62.3807 506.247 63.3738 505.551 64.069C504.855 64.7641 503.861 65.1614 502.867 65.1614C493.025 65.6579 483.481 65.8565 473.639 65.8565C463.797 65.8565 453.756 65.6579 443.914 65.1614C442.92 65.1614 442.025 64.7641 441.33 64.069C440.634 63.3738 440.236 62.3807 440.236 61.4869C440.037 59.4014 440.037 57.4152 439.938 55.429H431.786C431.786 57.5145 431.885 59.6993 431.985 61.8841C432.283 68.0414 437.353 73.1062 443.517 73.3048C453.557 73.8014 463.598 74 473.639 74C483.58 74 493.223 73.8014 503.264 73.3048C509.527 73.1062 514.498 68.0414 514.796 61.8841V41.2276C514.697 38.3476 513.603 35.7655 511.814 33.7793C513.603 31.7931 514.697 29.211 514.796 26.4303Z"/>
<path d="M573.188 3.29103H555.094L523.282 72.709H532.229L539.089 57.8124H589.193L596.053 72.709H605L573.188 3.29103ZM542.867 49.5697L560.363 11.4345H567.919L585.416 49.5697H542.867Z"/>
</mask>
<path d="M2 3.29103V11.4345H30.5317V72.709H38.783V11.4345H67.4141V3.29103H2Z" fill="url(#paint0_linear_187_2723)"/>
<path d="M143.312 11.4345V3.29103H77.8976V72.709H143.312V64.5655H86.0495V42.1214H143.312V33.9779H86.0495V11.4345H143.312Z" fill="url(#paint1_linear_187_2723)"/>
<path d="M242.926 3.29103H230.499L196.897 32.5876L163.395 3.29103H150.968L190.734 38.0497L150.968 72.709H163.395L196.897 43.4124L230.499 72.709H242.926L203.16 38.0497L242.926 3.29103Z" fill="url(#paint2_linear_187_2723)"/>
<path d="M323.366 29.7076H261.332V11.4345H329.729V3.29103H253.18V72.709H323.465C329.629 72.411 334.6 67.4455 334.898 61.189V41.2276C334.6 34.971 329.629 30.0055 323.366 29.7076ZM326.746 60.891C326.746 61.7848 326.348 62.7779 325.653 63.4731C324.957 64.1683 323.963 64.5655 323.068 64.5655H261.332V38.0497L322.968 37.9503C323.963 37.9503 324.957 38.3476 325.653 39.0428C326.348 39.7379 326.746 40.6317 326.746 41.6248V60.891Z" fill="url(#paint3_linear_187_2723)"/>
<path d="M392.857 3.29103H374.764L342.951 72.709H351.898L358.758 57.8124H408.863L415.722 72.709H424.669L392.857 3.29103ZM362.536 49.5697L380.033 11.4345H387.588L405.085 49.5697H362.536Z" fill="url(#paint4_linear_187_2723)"/>
<path d="M514.796 26.4303V14.2152C514.498 7.95862 509.527 2.9931 503.264 2.69517C493.223 2.19862 483.58 2 473.639 2C463.598 2 453.557 2.19862 443.517 2.69517C437.353 2.9931 432.283 7.95862 431.985 14.2152C431.885 16.3007 431.786 18.4855 431.786 20.6703H439.938C440.037 18.5848 440.037 16.5986 440.236 14.6124C440.236 13.6193 440.634 12.7255 441.33 12.0303C442.025 11.3352 442.92 10.9379 443.914 10.8386C453.756 10.4414 463.797 10.1434 473.639 10.1434C483.481 10.1434 493.025 10.4414 502.867 10.8386C503.861 10.9379 504.855 11.3352 505.551 12.0303C506.247 12.7255 506.644 13.6193 506.644 14.6124V26.0331C506.644 27.0262 506.147 27.92 505.451 28.6152C504.755 29.3103 503.861 29.7076 502.867 29.7076H458.528V38.0497L502.867 37.9503C503.861 37.9503 504.855 38.3476 505.551 39.0428C506.247 39.7379 506.644 40.6317 506.644 41.6248V61.4869C506.644 62.3807 506.247 63.3738 505.551 64.069C504.855 64.7641 503.861 65.1614 502.867 65.1614C493.025 65.6579 483.481 65.8565 473.639 65.8565C463.797 65.8565 453.756 65.6579 443.914 65.1614C442.92 65.1614 442.025 64.7641 441.33 64.069C440.634 63.3738 440.236 62.3807 440.236 61.4869C440.037 59.4014 440.037 57.4152 439.938 55.429H431.786C431.786 57.5145 431.885 59.6993 431.985 61.8841C432.283 68.0414 437.353 73.1062 443.517 73.3048C453.557 73.8014 463.598 74 473.639 74C483.58 74 493.223 73.8014 503.264 73.3048C509.527 73.1062 514.498 68.0414 514.796 61.8841V41.2276C514.697 38.3476 513.603 35.7655 511.814 33.7793C513.603 31.7931 514.697 29.211 514.796 26.4303Z" fill="url(#paint5_linear_187_2723)"/>
<path d="M573.188 3.29103H555.094L523.282 72.709H532.229L539.089 57.8124H589.193L596.053 72.709H605L573.188 3.29103ZM542.867 49.5697L560.363 11.4345H567.919L585.416 49.5697H542.867Z" fill="url(#paint6_linear_187_2723)"/>
<path d="M2 3.29103V11.4345H30.5317V72.709H38.783V11.4345H67.4141V3.29103H2Z" stroke="url(#paint7_linear_187_2723)" stroke-width="4" mask="url(#path-1-outside-1_187_2723)"/>
<path d="M143.312 11.4345V3.29103H77.8976V72.709H143.312V64.5655H86.0495V42.1214H143.312V33.9779H86.0495V11.4345H143.312Z" stroke="url(#paint8_linear_187_2723)" stroke-width="4" mask="url(#path-1-outside-1_187_2723)"/>
<path d="M242.926 3.29103H230.499L196.897 32.5876L163.395 3.29103H150.968L190.734 38.0497L150.968 72.709H163.395L196.897 43.4124L230.499 72.709H242.926L203.16 38.0497L242.926 3.29103Z" stroke="url(#paint9_linear_187_2723)" stroke-width="4" mask="url(#path-1-outside-1_187_2723)"/>
<path d="M323.366 29.7076H261.332V11.4345H329.729V3.29103H253.18V72.709H323.465C329.629 72.411 334.6 67.4455 334.898 61.189V41.2276C334.6 34.971 329.629 30.0055 323.366 29.7076ZM326.746 60.891C326.746 61.7848 326.348 62.7779 325.653 63.4731C324.957 64.1683 323.963 64.5655 323.068 64.5655H261.332V38.0497L322.968 37.9503C323.963 37.9503 324.957 38.3476 325.653 39.0428C326.348 39.7379 326.746 40.6317 326.746 41.6248V60.891Z" stroke="url(#paint10_linear_187_2723)" stroke-width="4" mask="url(#path-1-outside-1_187_2723)"/>
<path d="M392.857 3.29103H374.764L342.951 72.709H351.898L358.758 57.8124H408.863L415.722 72.709H424.669L392.857 3.29103ZM362.536 49.5697L380.033 11.4345H387.588L405.085 49.5697H362.536Z" stroke="url(#paint11_linear_187_2723)" stroke-width="4" mask="url(#path-1-outside-1_187_2723)"/>
<path d="M514.796 26.4303V14.2152C514.498 7.95862 509.527 2.9931 503.264 2.69517C493.223 2.19862 483.58 2 473.639 2C463.598 2 453.557 2.19862 443.517 2.69517C437.353 2.9931 432.283 7.95862 431.985 14.2152C431.885 16.3007 431.786 18.4855 431.786 20.6703H439.938C440.037 18.5848 440.037 16.5986 440.236 14.6124C440.236 13.6193 440.634 12.7255 441.33 12.0303C442.025 11.3352 442.92 10.9379 443.914 10.8386C453.756 10.4414 463.797 10.1434 473.639 10.1434C483.481 10.1434 493.025 10.4414 502.867 10.8386C503.861 10.9379 504.855 11.3352 505.551 12.0303C506.247 12.7255 506.644 13.6193 506.644 14.6124V26.0331C506.644 27.0262 506.147 27.92 505.451 28.6152C504.755 29.3103 503.861 29.7076 502.867 29.7076H458.528V38.0497L502.867 37.9503C503.861 37.9503 504.855 38.3476 505.551 39.0428C506.247 39.7379 506.644 40.6317 506.644 41.6248V61.4869C506.644 62.3807 506.247 63.3738 505.551 64.069C504.855 64.7641 503.861 65.1614 502.867 65.1614C493.025 65.6579 483.481 65.8565 473.639 65.8565C463.797 65.8565 453.756 65.6579 443.914 65.1614C442.92 65.1614 442.025 64.7641 441.33 64.069C440.634 63.3738 440.236 62.3807 440.236 61.4869C440.037 59.4014 440.037 57.4152 439.938 55.429H431.786C431.786 57.5145 431.885 59.6993 431.985 61.8841C432.283 68.0414 437.353 73.1062 443.517 73.3048C453.557 73.8014 463.598 74 473.639 74C483.58 74 493.223 73.8014 503.264 73.3048C509.527 73.1062 514.498 68.0414 514.796 61.8841V41.2276C514.697 38.3476 513.603 35.7655 511.814 33.7793C513.603 31.7931 514.697 29.211 514.796 26.4303Z" stroke="url(#paint12_linear_187_2723)" stroke-width="4" mask="url(#path-1-outside-1_187_2723)"/>
<path d="M573.188 3.29103H555.094L523.282 72.709H532.229L539.089 57.8124H589.193L596.053 72.709H605L573.188 3.29103ZM542.867 49.5697L560.363 11.4345H567.919L585.416 49.5697H542.867Z" stroke="url(#paint13_linear_187_2723)" stroke-width="4" mask="url(#path-1-outside-1_187_2723)"/>
<defs>
<linearGradient id="paint0_linear_187_2723" x1="59.8097" y1="37.5555" x2="604.997" y2="74.0401" gradientUnits="userSpaceOnUse">
<stop offset="0.129677" stop-color="white"/>
<stop offset="1" stop-color="#8AC2E1"/>
</linearGradient>
<linearGradient id="paint1_linear_187_2723" x1="59.8097" y1="37.5555" x2="604.997" y2="74.0401" gradientUnits="userSpaceOnUse">
<stop offset="0.129677" stop-color="white"/>
<stop offset="1" stop-color="#8AC2E1"/>
</linearGradient>
<linearGradient id="paint2_linear_187_2723" x1="59.8097" y1="37.5555" x2="604.997" y2="74.0401" gradientUnits="userSpaceOnUse">
<stop offset="0.129677" stop-color="white"/>
<stop offset="1" stop-color="#8AC2E1"/>
</linearGradient>
<linearGradient id="paint3_linear_187_2723" x1="59.8097" y1="37.5555" x2="604.997" y2="74.0401" gradientUnits="userSpaceOnUse">
<stop offset="0.129677" stop-color="white"/>
<stop offset="1" stop-color="#8AC2E1"/>
</linearGradient>
<linearGradient id="paint4_linear_187_2723" x1="59.8097" y1="37.5555" x2="604.997" y2="74.0401" gradientUnits="userSpaceOnUse">
<stop offset="0.129677" stop-color="white"/>
<stop offset="1" stop-color="#8AC2E1"/>
</linearGradient>
<linearGradient id="paint5_linear_187_2723" x1="59.8097" y1="37.5555" x2="604.997" y2="74.0401" gradientUnits="userSpaceOnUse">
<stop offset="0.129677" stop-color="white"/>
<stop offset="1" stop-color="#8AC2E1"/>
</linearGradient>
<linearGradient id="paint6_linear_187_2723" x1="59.8097" y1="37.5555" x2="604.997" y2="74.0401" gradientUnits="userSpaceOnUse">
<stop offset="0.129677" stop-color="white"/>
<stop offset="1" stop-color="#8AC2E1"/>
</linearGradient>
<linearGradient id="paint7_linear_187_2723" x1="2" y1="2" x2="604.991" y2="74.0785" gradientUnits="userSpaceOnUse">
<stop stop-color="white"/>
<stop offset="1" stop-color="#8AC2E1"/>
</linearGradient>
<linearGradient id="paint8_linear_187_2723" x1="2" y1="2" x2="604.991" y2="74.0785" gradientUnits="userSpaceOnUse">
<stop stop-color="white"/>
<stop offset="1" stop-color="#8AC2E1"/>
</linearGradient>
<linearGradient id="paint9_linear_187_2723" x1="2" y1="2" x2="604.991" y2="74.0785" gradientUnits="userSpaceOnUse">
<stop stop-color="white"/>
<stop offset="1" stop-color="#8AC2E1"/>
</linearGradient>
<linearGradient id="paint10_linear_187_2723" x1="2" y1="2" x2="604.991" y2="74.0785" gradientUnits="userSpaceOnUse">
<stop stop-color="white"/>
<stop offset="1" stop-color="#8AC2E1"/>
</linearGradient>
<linearGradient id="paint11_linear_187_2723" x1="2" y1="2" x2="604.991" y2="74.0785" gradientUnits="userSpaceOnUse">
<stop stop-color="white"/>
<stop offset="1" stop-color="#8AC2E1"/>
</linearGradient>
<linearGradient id="paint12_linear_187_2723" x1="2" y1="2" x2="604.991" y2="74.0785" gradientUnits="userSpaceOnUse">
<stop stop-color="white"/>
<stop offset="1" stop-color="#8AC2E1"/>
</linearGradient>
<linearGradient id="paint13_linear_187_2723" x1="2" y1="2" x2="604.991" y2="74.0785" gradientUnits="userSpaceOnUse">
<stop stop-color="white"/>
<stop offset="1" stop-color="#8AC2E1"/>
</linearGradient>
</defs>
</svg>
